<svg width="159" height="176" viewBox="0 0 159 176" fill="none" xmlns="http://www.w3.org/2000/svg">
<g clipPath="url(#clip0_12469_18462)">
<g clipPath="url(#clip1_12469_18462)">
<g clipPath="url(#clip2_12469_18462)">
<path d="M70.7062 98.9486C70.1988 99.3292 69.9451 99.7099 69.5645 99.8368C56.6252 107.704 43.1785 114.429 28.3364 118.362C21.613 120.139 14.7628 120.9 7.91258 121.281C6.1366 121.408 4.23376 121.662 2.45778 121.915C1.8235 122.042 1.06236 122.296 0.554938 122.677C0.301226 122.93 0.0475107 123.565 0.174367 123.945C0.301226 124.326 0.935506 124.58 1.31608 124.58C18.1879 124.072 34.6792 121.281 50.0287 113.921C57.8938 110.115 65.632 106.181 72.9897 101.486C73.7508 100.979 74.8925 100.344 75.6536 100.471C85.5484 102.121 95.1894 100.471 104.45 97.5528C118.785 93.1117 132.866 88.0362 147.074 83.2144C147.962 82.9606 148.977 82.58 150.245 82.7069C144.156 90.5739 137.94 98.3141 131.724 106.308C133.12 107.323 134.135 107.069 135.149 106.435C136.291 105.674 137.56 104.912 138.575 103.897C144.029 98.1872 149.484 92.4772 154.812 86.6404C155.954 85.3714 156.842 83.8489 157.603 82.3262C158.998 79.2809 157.603 76.87 154.305 76.3624C147.835 75.4742 141.492 74.7129 135.023 74.0785C133.12 73.8247 131.978 74.586 131.724 75.9818C131.597 77.2507 132.485 78.3927 134.388 78.7733C137.687 79.4078 140.985 79.7884 144.664 80.4229C144.029 80.8035 143.776 81.0573 143.395 81.1842C129.06 85.4984 114.726 89.9395 100.264 93.9999C95.9506 95.2688 91.2569 95.6495 86.8169 96.2839C85.041 96.5377 83.1381 96.2839 80.8547 96.2839C81.6158 95.3957 82.2501 94.7612 82.7575 94.2537C87.0707 90.4469 91.0032 86.1328 94.0477 81.1842C96.7117 76.7431 98.3608 72.0482 98.234 66.7189C98.1071 64.9425 97.9803 63.0391 97.4728 61.2627C95.3163 53.3956 88.2124 49.2083 79.9667 50.9847C69.6914 53.0149 57.1327 63.2929 57.2595 78.1389C57.2595 86.5135 61.192 92.8579 68.1691 97.4259C68.9303 97.9334 69.8182 98.441 70.7062 98.9486ZM94.682 66.592C94.5552 71.4138 93.2866 75.4742 91.0032 79.154C87.5781 85.1177 82.7576 89.9394 77.5565 94.2537C76.4148 95.2687 75.2731 95.2688 73.8776 94.8881C66.6469 92.6041 61.3189 84.9908 61.5726 77.5044C61.9532 67.3534 70.5794 56.9485 80.601 54.7914C87.3244 53.2687 92.5255 56.5678 94.1746 63.166C94.4283 64.4349 94.5552 65.8307 94.682 66.592Z" fill="#AAAAAA"/>
</g>
</g>
</g>
<defs>
<clipPath id="clip0_12469_18462">
<rect width="158" height="175.16" fill="white" transform="translate(0.140625)"/>
</clipPath>
<clipPath id="clip1_12469_18462">
<rect width="158" height="175.16" fill="white" transform="translate(0.140625)"/>
</clipPath>
<clipPath id="clip2_12469_18462">
<rect width="158" height="74" fill="white" transform="translate(0.140625 50.58)"/>
</clipPath>
</defs>
</svg>
