<svg width="85" height="22" viewBox="0 0 85 22" fill="none" xmlns="http://www.w3.org/2000/svg">
<g clipPath="url(#clip0_12469_18559)">
<path d="M0.0390625 15.4577H2.34962V1.21795H0.0390625V0.935669H4.7229L8.57034 12.133H8.61216L12.4701 0.935669H17.0703V1.22841H14.7597V15.4577H17.0703V15.7504H10.3686V15.4577H12.6792V1.34341H12.6373L7.6503 15.7609L2.69463 1.50024H2.65281V15.4681H4.96337V15.7609H0.0390625V15.4577Z" fill="#2A2C32"/>
<path d="M16.4948 8.31575C16.4948 7.20752 16.7144 6.17248 17.1535 5.23153C17.5926 4.29058 18.1467 3.46463 18.8367 2.76415C19.5268 2.06366 20.29 1.52 21.1578 1.12271C22.0151 0.735876 22.8828 0.537231 23.7297 0.537231C24.6393 0.537231 25.5384 0.735876 26.4062 1.12271C27.2739 1.50955 28.0476 2.06366 28.7272 2.76415C29.4172 3.46463 29.94 4.28012 30.3686 5.23153C30.7764 6.17248 30.9855 7.20752 30.9855 8.31575C30.9855 9.27761 30.8077 10.229 30.4209 11.17C30.0445 12.09 29.5427 12.9369 28.884 13.6478C28.2253 14.3797 27.4726 14.9442 26.5839 15.3938C25.7057 15.8434 24.7543 16.0629 23.7401 16.0629C22.726 16.0629 21.7432 15.8538 20.8441 15.4147C19.9659 14.986 19.1922 14.411 18.544 13.6896C17.8958 12.9787 17.394 12.1527 17.028 11.2118C16.6621 10.2708 16.4844 9.30898 16.4844 8.3053L16.4948 8.31575ZM18.9099 8.31575C18.9099 9.5599 18.9936 10.6577 19.1609 11.5777C19.3281 12.4978 19.6104 13.2819 19.9868 13.9196C20.3736 14.5469 20.865 15.007 21.4819 15.3206C22.0987 15.6343 22.8515 15.7806 23.7506 15.7806C24.6497 15.7806 25.392 15.6238 26.0089 15.3206C26.6257 15.0174 27.1276 14.5469 27.5249 13.9196C27.9221 13.2923 28.194 12.5187 28.3508 11.5777C28.5181 10.6577 28.6017 9.5599 28.6017 8.31575C28.6017 7.36435 28.5494 6.4234 28.424 5.53472C28.2985 4.63559 28.0581 3.84101 27.713 3.14053C27.368 2.44004 26.8766 1.88593 26.2284 1.45727C25.6011 1.03907 24.7752 0.829971 23.7611 0.829971C22.7469 0.829971 21.9314 1.03907 21.2937 1.45727C20.6559 1.87547 20.175 2.44004 19.8091 3.14053C19.4641 3.84101 19.2236 4.63559 19.0981 5.53472C18.9727 6.44431 18.9204 7.36435 18.9204 8.31575H18.9099Z" fill="#2A2C32"/>
<path d="M30.5234 15.4527H32.834V1.21301H30.5234V0.930729H34.4022C34.6009 0.930729 34.7891 0.930729 34.9877 0.920274C35.1864 0.909819 35.3746 0.888909 35.5732 0.878454C35.7718 0.878454 35.96 0.878454 36.1587 0.867999C36.3573 0.867999 36.5455 0.857544 36.7442 0.857544C37.1624 0.857544 37.5283 0.867999 37.8628 0.867999C38.187 0.878454 38.4901 0.909819 38.7724 0.941184C39.0547 0.972549 39.337 1.02482 39.5879 1.0771C39.8388 1.12937 40.1211 1.21301 40.4139 1.31756C41.2503 1.59985 41.9926 1.96577 42.6094 2.43625C43.2263 2.89627 43.7281 3.43993 44.1358 4.04632C44.5227 4.66316 44.8259 5.32183 45.0036 6.04322C45.1813 6.77507 45.2859 7.52783 45.2859 8.31196C45.2859 9.22154 45.1709 10.0475 44.9513 10.7793C44.7318 11.5112 44.4181 12.1489 44.0418 12.7135C43.6549 13.2781 43.2054 13.759 42.6826 14.1668C42.1599 14.5745 41.6057 14.9091 40.9993 15.16C40.6648 15.3168 40.3511 15.4214 40.0479 15.505C39.7552 15.5886 39.4416 15.6409 39.1384 15.6827C38.8352 15.7246 38.4797 15.7559 38.1033 15.7664C37.7269 15.7768 37.3087 15.7768 36.8173 15.7768C36.6082 15.7768 36.3887 15.7768 36.1482 15.7664C35.9078 15.7559 35.6673 15.7559 35.4373 15.735C35.1968 15.7246 34.9773 15.7036 34.7368 15.7036C34.5172 15.6932 34.2872 15.6932 34.0781 15.6932H30.5339V15.4423H30.5234V15.4527ZM34.9145 15.4527C35.155 15.4841 35.4164 15.4945 35.7405 15.505C36.0437 15.5155 36.3991 15.5155 36.7755 15.5155C37.2565 15.5155 37.7165 15.4841 38.1765 15.4423C38.6365 15.4004 39.0861 15.2854 39.5043 15.1391C39.9225 14.9927 40.3198 14.7522 40.6962 14.449C41.0621 14.1563 41.3966 13.759 41.6894 13.2781C42.1389 12.5253 42.4421 11.7621 42.6094 10.978C42.7767 10.1939 42.8708 9.33655 42.8708 8.40605C42.8708 7.31873 42.7767 6.32551 42.5676 5.42638C42.3585 4.52725 42.0239 3.76403 41.5326 3.12628C41.0516 2.49898 40.4243 2.00759 39.6297 1.65212C38.8456 1.30711 37.8628 1.12937 36.7023 1.12937C36.3573 1.12937 36.0437 1.12937 35.7509 1.13983C35.4687 1.15028 35.1864 1.17119 34.925 1.18165V15.4318H34.9145V15.4527Z" fill="#2A2C32"/>
<path d="M45.3203 15.4577H47.6309V1.21795H45.3203V0.935669H57.2286V4.53219H57.009C56.8313 3.98853 56.6326 3.5076 56.4235 3.09985C56.2144 2.69211 55.9635 2.34709 55.6708 2.06481C55.378 1.78252 55.0226 1.57342 54.6357 1.43751C54.228 1.30159 53.7575 1.22841 53.1825 1.22841H49.7219V7.64778H51.081C51.541 7.64778 51.9174 7.60596 52.2415 7.52232C52.5656 7.43868 52.827 7.28185 53.0675 7.0623C53.287 6.84274 53.4857 6.51864 53.6529 6.12135C53.8098 5.73451 53.9771 5.21176 54.113 4.59492H54.3325V11.0561H54.113C54.0189 10.6484 53.9143 10.272 53.8098 9.8956C53.7157 9.51922 53.5589 9.19512 53.3811 8.90238C53.2034 8.60964 52.9525 8.37963 52.6284 8.20189C52.3252 8.03461 51.9174 7.94052 51.4156 7.94052H49.7323V15.4472H53.6634C54.4371 15.4472 55.0644 15.2799 55.5662 14.9558C56.0681 14.6317 56.4863 14.2449 56.8104 13.7953C57.1345 13.3458 57.3749 12.8753 57.5213 12.3943C57.6781 11.903 57.7722 11.5161 57.814 11.192H58.0336V15.7504H45.3412V15.4472H45.3308L45.3203 15.4577Z" fill="#2A2C32"/>
<path d="M72.2799 15.7455C71.7885 15.7455 71.3181 15.8186 70.9103 15.8186C70.3457 15.8186 69.8857 15.7455 69.5198 15.6095C69.1539 15.4736 68.8611 15.2645 68.6416 14.9927C68.422 14.7313 68.307 14.4595 68.2129 14.0727C68.1188 13.6858 68.0352 13.2154 67.9934 12.6821L67.8575 10.7898C67.8052 10.0893 67.6588 9.5561 67.4393 9.16927C67.2197 8.78243 66.9583 8.50015 66.6551 8.31196C66.3624 8.13422 66.0487 8.01922 65.7351 7.98785C65.411 7.95649 65.1287 7.93558 64.9091 7.93558H62.8286V15.4423H65.1392V15.735H58.4375V15.4423H60.7481V1.21301H58.4375V0.930729H62.3999C62.5672 0.930729 62.7345 0.930729 62.9018 0.920274C63.0691 0.909819 63.2363 0.888909 63.4036 0.878454C63.5709 0.878454 63.7382 0.878454 63.9055 0.867999C64.0727 0.867999 64.24 0.857544 64.4073 0.857544C65.2332 0.857544 65.9442 0.899364 66.5715 0.993459C67.1988 1.0771 67.7738 1.33847 68.3175 1.77758C68.8089 2.15396 69.1434 2.57216 69.3525 3.05309C69.5512 3.53402 69.6557 3.96268 69.6557 4.38088C69.6557 4.58998 69.6139 4.86181 69.5407 5.17546C69.4675 5.49956 69.3002 5.83412 69.0389 6.16868C68.7879 6.50324 68.4116 6.82735 67.9202 7.10963C67.4288 7.39192 66.791 7.59056 65.986 7.68466V7.72648C66.2056 7.75784 66.5088 7.81012 66.8956 7.8833C67.272 7.95649 67.6693 8.0924 68.0561 8.27014C68.4429 8.44787 68.8089 8.68834 69.1434 8.98108C69.478 9.27382 69.7184 9.67111 69.8544 10.1416C69.938 10.4239 69.9903 10.7271 70.0321 11.093C70.0635 11.438 70.0844 11.8039 70.1157 12.1803C70.1262 12.5567 70.1576 12.9226 70.168 13.2572C70.1785 13.6022 70.2203 13.9054 70.283 14.1249C70.3667 14.4909 70.4503 14.7418 70.628 15.0345C70.8058 15.3273 71.2135 15.4423 71.6108 15.4423H72.4367V15.735H72.2695L72.2799 15.7455ZM62.8077 7.65329H64.721C65.1078 7.65329 65.4633 7.61147 65.7874 7.51738C66.1115 7.42328 66.3728 7.256 66.6133 7.01554C66.8329 6.77507 67.0211 6.44051 67.1465 6.02231C67.272 5.60411 67.3242 5.08136 67.3242 4.44361C67.3242 3.71176 67.2302 3.14719 67.042 2.70808C66.8538 2.26897 66.6133 1.93441 66.3101 1.71485C66.0069 1.4953 65.6828 1.34893 65.3169 1.2862C64.951 1.22347 64.585 1.1921 64.2296 1.1921C63.9787 1.1921 63.7277 1.1921 63.4768 1.20256C63.2259 1.20256 62.9959 1.23392 62.8181 1.25483V7.66375H62.8077V7.65329Z" fill="#2A2C32"/>
<path d="M72.3048 15.4577H73.1621V1.21795H70.8516V0.935669H75.3054L82.3416 12.2689H82.3834V1.22841H80.0729V0.935669H84.9972V1.22841H82.6866V16.0536H82.2684L73.5071 2.08572H73.4653V15.4681H75.7759V15.7609H72.3989L72.3048 15.4577Z" fill="#2A2C32"/>
<path d="M34.7139 16.975V17.375H33.1489V20.545H32.6989V16.975H34.7139ZM36.2659 16.975C36.7326 16.975 37.0726 17.0667 37.2859 17.25C37.4993 17.4334 37.6059 17.6917 37.6059 18.025C37.6059 18.1717 37.5809 18.3134 37.5309 18.45C37.4843 18.5834 37.4059 18.7034 37.2959 18.81C37.1859 18.9167 37.0393 19.0017 36.8559 19.065C36.6726 19.125 36.4476 19.155 36.1809 19.155H35.7709V20.545H35.3209V16.975H36.2659ZM36.2259 17.36H35.7709V18.77H36.1309C36.3576 18.77 36.5459 18.7467 36.6959 18.7C36.8459 18.65 36.9576 18.5717 37.0309 18.465C37.1043 18.3584 37.1409 18.2184 37.1409 18.045C37.1409 17.815 37.0676 17.6434 36.9209 17.53C36.7743 17.4167 36.5426 17.36 36.2259 17.36ZM39.8433 19.53C39.7366 19.7667 39.6283 19.965 39.5183 20.125C39.4116 20.2817 39.2849 20.4 39.1383 20.48C38.9916 20.5567 38.8049 20.595 38.5783 20.595C38.4849 20.595 38.3966 20.5884 38.3133 20.575C38.2333 20.5617 38.1599 20.5434 38.0933 20.52V20.075C38.1599 20.105 38.2316 20.13 38.3083 20.15C38.3849 20.1667 38.4649 20.175 38.5483 20.175C38.6716 20.175 38.7766 20.1584 38.8633 20.125C38.9533 20.0884 39.0316 20.03 39.0983 19.95C39.1683 19.87 39.2333 19.7634 39.2933 19.63L37.9183 16.975H38.4133L39.4083 18.94C39.4216 18.9634 39.4349 18.9917 39.4483 19.025C39.4616 19.055 39.4749 19.0867 39.4883 19.12C39.5049 19.1534 39.5183 19.185 39.5283 19.215H39.5483C39.5583 19.1917 39.5683 19.165 39.5783 19.135C39.5916 19.1017 39.6033 19.07 39.6133 19.04C39.6266 19.0067 39.6383 18.9784 39.6483 18.955L40.5083 16.975H40.9833L39.8433 19.53ZM41.4684 20.545V16.975H44.1484V20.545H43.7034V17.37H41.9184V20.545H41.4684ZM45.1256 20.545V16.975H47.8056V20.545H47.3606V17.37H45.5756V20.545H45.1256ZM51.0229 20.545L50.5929 19.44H49.1779L48.7529 20.545H48.2979L49.6929 16.96H50.0979L51.4879 20.545H51.0229ZM50.0579 17.96C50.0479 17.9334 50.0312 17.885 50.0079 17.815C49.9845 17.745 49.9612 17.6734 49.9379 17.6C49.9179 17.5234 49.9012 17.465 49.8879 17.425C49.8712 17.4917 49.8529 17.56 49.8329 17.63C49.8162 17.6967 49.7979 17.7584 49.7779 17.815C49.7612 17.8717 49.7462 17.92 49.7329 17.96L49.3279 19.04H50.4579L50.0579 17.96ZM56.4611 20.545H55.9211L54.3061 18.735V20.545H53.8561V16.975H54.3061V18.705L55.8811 16.975H56.3911L54.8411 18.71L56.4611 20.545ZM59.9643 18.755C59.9643 19.0317 59.9293 19.2834 59.8593 19.51C59.7893 19.7334 59.6843 19.9267 59.5443 20.09C59.4076 20.2534 59.2359 20.3784 59.0293 20.465C58.8259 20.5517 58.5893 20.595 58.3193 20.595C58.0393 20.595 57.7959 20.5517 57.5893 20.465C57.3826 20.375 57.2109 20.25 57.0743 20.09C56.9376 19.9267 56.8359 19.7317 56.7693 19.505C56.7026 19.2784 56.6693 19.0267 56.6693 18.75C56.6693 18.3834 56.7293 18.0634 56.8493 17.79C56.9693 17.5167 57.1509 17.3034 57.3943 17.15C57.6409 16.9967 57.9509 16.92 58.3243 16.92C58.6809 16.92 58.9809 16.9967 59.2243 17.15C59.4676 17.3 59.6509 17.5134 59.7743 17.79C59.9009 18.0634 59.9643 18.385 59.9643 18.755ZM57.1443 18.755C57.1443 19.055 57.1859 19.3134 57.2693 19.53C57.3526 19.7467 57.4809 19.9134 57.6543 20.03C57.8309 20.1467 58.0526 20.205 58.3193 20.205C58.5893 20.205 58.8093 20.1467 58.9793 20.03C59.1526 19.9134 59.2809 19.7467 59.3643 19.53C59.4476 19.3134 59.4893 19.055 59.4893 18.755C59.4893 18.305 59.3959 17.9534 59.2093 17.7C59.0226 17.4434 58.7276 17.315 58.3243 17.315C58.0543 17.315 57.8309 17.3734 57.6543 17.49C57.4809 17.6034 57.3526 17.7684 57.2693 17.985C57.1859 18.1984 57.1443 18.455 57.1443 18.755ZM62.3305 20.545L61.1555 17.415H61.1355C61.1422 17.4817 61.1472 17.5667 61.1505 17.67C61.1572 17.7734 61.1622 17.8867 61.1655 18.01C61.1688 18.13 61.1705 18.2534 61.1705 18.38V20.545H60.7555V16.975H61.4205L62.5205 19.9H62.5405L63.6605 16.975H64.3205V20.545H63.8755V18.35C63.8755 18.2334 63.8772 18.1184 63.8805 18.005C63.8838 17.8884 63.8888 17.78 63.8955 17.68C63.9022 17.5767 63.9072 17.49 63.9105 17.42H63.8905L62.7005 20.545H62.3305ZM65.2916 20.545V16.975H67.9716V20.545H67.5266V17.37H65.7416V20.545H65.2916ZM71.1889 20.545L70.7589 19.44H69.3439L68.9189 20.545H68.4639L69.8589 16.96H70.2639L71.6539 20.545H71.1889ZM70.2239 17.96C70.2139 17.9334 70.1972 17.885 70.1739 17.815C70.1505 17.745 70.1272 17.6734 70.1039 17.6C70.0839 17.5234 70.0672 17.465 70.0539 17.425C70.0372 17.4917 70.0189 17.56 69.9989 17.63C69.9822 17.6967 69.9639 17.7584 69.9439 17.815C69.9272 17.8717 69.9122 17.92 69.8989 17.96L69.4939 19.04H70.6239L70.2239 17.96ZM74.8722 20.545H74.4222V18.88H72.5922V20.545H72.1422V16.975H72.5922V18.485H74.4222V16.975H74.8722V20.545ZM75.8533 16.975H76.2733V18.935C76.2733 19.0184 76.2716 19.11 76.2683 19.21C76.2683 19.3067 76.2666 19.4034 76.2633 19.5C76.2599 19.5967 76.2549 19.6834 76.2483 19.76C76.2449 19.8334 76.2416 19.89 76.2383 19.93H76.2583L78.2233 16.975H78.7233V20.545H78.3033V18.605C78.3033 18.515 78.3049 18.4184 78.3083 18.315C78.3116 18.2084 78.3149 18.1067 78.3183 18.01C78.3249 17.91 78.3299 17.8217 78.3333 17.745C78.3366 17.6684 78.3399 17.6117 78.3433 17.575H78.3233L76.3533 20.545H75.8533V16.975ZM82.1212 15.865C82.1078 16.0317 82.0662 16.1717 81.9962 16.285C81.9295 16.3984 81.8295 16.4834 81.6962 16.54C81.5628 16.5967 81.3895 16.625 81.1762 16.625C80.9595 16.625 80.7845 16.5967 80.6512 16.54C80.5212 16.4834 80.4262 16.4 80.3662 16.29C80.3062 16.1767 80.2695 16.035 80.2562 15.865H80.6662C80.6828 16.045 80.7295 16.1667 80.8062 16.23C80.8862 16.29 81.0128 16.32 81.1862 16.32C81.3395 16.32 81.4595 16.2884 81.5462 16.225C81.6362 16.1584 81.6895 16.0384 81.7062 15.865H82.1212ZM79.6912 16.975H80.1112V18.935C80.1112 19.0184 80.1095 19.11 80.1062 19.21C80.1062 19.3067 80.1045 19.4034 80.1012 19.5C80.0978 19.5967 80.0928 19.6834 80.0862 19.76C80.0828 19.8334 80.0795 19.89 80.0762 19.93H80.0962L82.0612 16.975H82.5612V20.545H82.1412V18.605C82.1412 18.515 82.1428 18.4184 82.1462 18.315C82.1495 18.2084 82.1528 18.1067 82.1562 18.01C82.1628 17.91 82.1678 17.8217 82.1712 17.745C82.1745 17.6684 82.1778 17.6117 82.1812 17.575H82.1612L80.1912 20.545H79.6912V16.975Z" fill="#2A2C32"/>
</g>
<defs>
<clipPath id="clip0_12469_18559">
<rect width="84.9573" height="20.91" fill="white" transform="translate(0.0390625 0.545044)"/>
</clipPath>
</defs>
</svg>
