<svg width="89" height="30" viewBox="0 0 89 30" fill="none" xmlns="http://www.w3.org/2000/svg">
<path fill-rule="evenodd" clip-rule="evenodd" d="M27.9028 29.4256C28.158 29.4713 28.3459 29.4635 28.4653 29.4022C28.5852 29.3386 28.6432 29.2306 28.6403 29.0769C28.6403 28.9804 28.6206 28.9015 28.5823 28.8444C28.5444 28.7857 28.4932 28.7422 28.4281 28.7142C28.3632 28.6855 28.2859 28.6699 28.1963 28.6676C28.1067 28.6654 28.0089 28.6699 27.9028 28.6799V29.4256ZM27.9028 28.2258C27.9953 28.2347 28.0811 28.2368 28.1591 28.2368C28.2371 28.2347 28.3042 28.2236 28.361 28.2002C28.4172 28.1769 28.4611 28.1412 28.4932 28.0899C28.5241 28.04 28.54 27.9674 28.54 27.8739C28.54 27.7894 28.5241 27.7229 28.4932 27.6715C28.4611 27.6202 28.4172 27.5834 28.361 27.5615C28.3042 27.5403 28.2371 27.5314 28.1591 27.5336C28.0811 27.5356 27.9953 27.547 27.9028 27.5656V28.2258ZM27.125 27.0305C27.3013 27.0227 27.4747 27.0104 27.6458 26.9926C27.8168 26.9761 27.9971 26.9658 28.1861 26.9658C28.2563 26.9658 28.328 26.9682 28.4031 26.9725C28.4776 26.9762 28.5529 26.9848 28.6276 26.997C28.7022 27.0093 28.7726 27.0271 28.8393 27.0515C28.9057 27.0762 28.967 27.1059 29.0238 27.1438C29.1364 27.2231 29.2157 27.3154 29.2627 27.4234C29.3093 27.5325 29.3325 27.6436 29.3325 27.7604C29.3325 27.8931 29.2908 28.0156 29.2079 28.1288C29.1248 28.2425 28.9984 28.3249 28.829 28.3758C29.0751 28.4084 29.2585 28.494 29.3797 28.6306C29.5007 28.7687 29.5582 28.9394 29.5518 29.1418C29.5518 29.2797 29.5186 29.4075 29.4522 29.5269C29.3857 29.6458 29.2908 29.7438 29.1678 29.8217C29.045 29.9005 28.8914 29.9518 28.7069 29.9763C28.5228 30.0008 28.3024 30.0064 28.0468 29.993C27.9507 29.9866 27.8571 29.9819 27.768 29.9763C27.6779 29.9707 27.587 29.9685 27.4938 29.9685C27.4308 29.9685 27.3686 29.9696 27.3071 29.9707C27.2453 29.9721 27.1847 29.9741 27.125 29.9763V27.0305Z" fill="#2A2C32"/>
<path fill-rule="evenodd" clip-rule="evenodd" d="M31.6472 27.4782H31.5287L31.3389 28.6613H31.8465L31.6472 27.4782ZM31.9313 29.1516H31.2445L31.1733 29.6629H30.3672L30.9789 26.9658H32.1828L32.7945 29.6629H32.0121L31.9313 29.1516Z" fill="#2A2C32"/>
<path fill-rule="evenodd" clip-rule="evenodd" d="M34.7067 28.6003C34.8145 28.6374 34.9069 28.6485 34.9847 28.6295C35.062 28.6125 35.1272 28.5767 35.1793 28.5239C35.2318 28.4712 35.2699 28.4041 35.2939 28.3221C35.3176 28.2399 35.3296 28.1526 35.3296 28.0606C35.3296 27.9978 35.3232 27.9351 35.3091 27.8734C35.2959 27.8094 35.2735 27.7545 35.2422 27.7028C35.2111 27.6537 35.1705 27.6122 35.1212 27.5804C35.072 27.5505 35.0099 27.5348 34.935 27.5348C34.8574 27.5348 34.7812 27.54 34.7067 27.5537V28.6003ZM36.0285 30.0001H35.262L34.783 29.0858H34.7067V30.0001H34.0078V27.031C34.0525 27.031 34.1116 27.0286 34.1848 27.0208C34.2579 27.0139 34.3335 27.0075 34.4109 26.9996C34.4886 26.9905 34.5654 26.9839 34.6417 26.9762C34.7181 26.9693 34.7812 26.9658 34.8321 26.9658C34.9366 26.9658 35.048 26.9715 35.166 26.9826C35.2839 26.9929 35.3965 27.0243 35.5044 27.0771C35.6807 27.1578 35.8148 27.2889 35.9078 27.4685C36.0002 27.6478 36.0405 27.8915 36.0285 28.1998C36.0048 28.4498 35.9457 28.6407 35.8517 28.7709C35.7577 28.902 35.6358 28.9917 35.4865 29.0397L36.0285 30.0001Z" fill="#2A2C32"/>
<path fill-rule="evenodd" clip-rule="evenodd" d="M38.02 29.4256C38.2752 29.4713 38.463 29.4635 38.5825 29.4022C38.7024 29.3386 38.7603 29.2306 38.757 29.0769C38.757 28.9804 38.7378 28.9015 38.6995 28.8444C38.6616 28.7857 38.6101 28.7422 38.5455 28.7142C38.4804 28.6855 38.4035 28.6699 38.3135 28.6676C38.2244 28.6654 38.1261 28.6699 38.02 28.6799V29.4256ZM38.02 28.2258C38.1125 28.2347 38.1983 28.2368 38.2763 28.2368C38.3543 28.2347 38.4214 28.2236 38.4782 28.2002C38.5346 28.1769 38.5785 28.1412 38.6101 28.0899C38.6418 28.04 38.6574 27.9674 38.6574 27.8739C38.6574 27.7894 38.6418 27.7229 38.6101 27.6715C38.5785 27.6202 38.5346 27.5834 38.4782 27.5615C38.4214 27.5403 38.3543 27.5314 38.2763 27.5336C38.1983 27.5356 38.1125 27.547 38.02 27.5656V28.2258ZM37.2422 27.0305C37.4185 27.0227 37.5919 27.0104 37.763 26.9926C37.934 26.9761 38.1145 26.9658 38.3035 26.9658C38.3734 26.9658 38.4457 26.9682 38.5203 26.9725C38.5952 26.9762 38.6701 26.9848 38.7447 26.997C38.8196 27.0093 38.89 27.0271 38.9565 27.0515C39.0229 27.0762 39.0842 27.1059 39.141 27.1438C39.2535 27.2231 39.3333 27.3154 39.3799 27.4234C39.4265 27.5325 39.4497 27.6436 39.4497 27.7604C39.4497 27.8931 39.4082 28.0156 39.3251 28.1288C39.2419 28.2425 39.116 28.3249 38.9462 28.3758C39.1923 28.4084 39.3757 28.494 39.4971 28.6306C39.6184 28.7687 39.6754 28.9394 39.669 29.1418C39.669 29.2797 39.6357 29.4075 39.5693 29.5269C39.5029 29.6458 39.4082 29.7438 39.2854 29.8217C39.1622 29.9005 39.0086 29.9518 38.8243 29.9763C38.6404 30.0008 38.42 30.0064 38.1644 29.993C38.0675 29.9866 37.9747 29.9819 37.8852 29.9763C37.7956 29.9707 37.7037 29.9685 37.6115 29.9685C37.548 29.9685 37.4858 29.9696 37.4243 29.9707C37.3625 29.9721 37.3024 29.9741 37.2422 29.9763V27.0305Z" fill="#2A2C32"/>
<path fill-rule="evenodd" clip-rule="evenodd" d="M40.8828 29.6629V26.9658H42.501V27.4743H41.6718V28.064H42.4617V28.5463H41.6718V29.1373H42.501V29.6629H40.8828Z" fill="#2A2C32"/>
<path fill-rule="evenodd" clip-rule="evenodd" d="M44.4172 28.6003C44.5252 28.6374 44.6176 28.6485 44.6956 28.6295C44.7734 28.6125 44.8385 28.5767 44.8906 28.5239C44.943 28.4712 44.9806 28.4041 45.0043 28.3221C45.0283 28.2399 45.0408 28.1526 45.0408 28.0606C45.0408 27.9978 45.0338 27.9351 45.0203 27.8734C45.0067 27.8094 44.9845 27.7545 44.9532 27.7028C44.9219 27.6537 44.8814 27.6122 44.8317 27.5804C44.7824 27.5505 44.721 27.5348 44.6461 27.5348C44.5687 27.5348 44.4923 27.54 44.4172 27.5537V28.6003ZM45.7394 30.0001H44.9736L44.4935 29.0858H44.4172V30.0001H43.7188V27.031C43.7633 27.031 43.8224 27.0286 43.8956 27.0208C43.9693 27.0139 44.0443 27.0075 44.1215 26.9996C44.1995 26.9905 44.2762 26.9839 44.3524 26.9762C44.4288 26.9693 44.4923 26.9658 44.5428 26.9658C44.6475 26.9658 44.7585 26.9715 44.8768 26.9826C44.9953 26.9929 45.1079 27.0243 45.2154 27.0771C45.3916 27.1578 45.5263 27.2889 45.6185 27.4685C45.7115 27.6478 45.7514 27.8915 45.7394 28.1998C45.7159 28.4498 45.6568 28.6407 45.5632 28.7709C45.4684 28.902 45.3469 28.9917 45.1979 29.0397L45.7394 30.0001Z" fill="#2A2C32"/>
<path fill-rule="evenodd" clip-rule="evenodd" d="M48.8122 29.1776C48.8695 29.2631 48.9508 29.3345 49.0573 29.3913C49.1612 29.4486 49.2651 29.4859 49.3703 29.5032C49.4729 29.5207 49.5662 29.5145 49.6502 29.4838C49.7354 29.4527 49.7859 29.3938 49.8059 29.306C49.8219 29.2292 49.8126 29.1524 49.7766 29.0778C49.7406 29.0032 49.6807 28.942 49.5968 28.8948C49.517 28.8488 49.4291 28.8136 49.3356 28.7874C49.2413 28.7599 49.1506 28.7292 49.0612 28.6954C48.9734 28.6602 48.8907 28.6172 48.8148 28.5637C48.7376 28.5099 48.679 28.4332 48.6376 28.3314C48.6085 28.2623 48.5884 28.1888 48.579 28.1086C48.5697 28.0286 48.5671 27.9506 48.5749 27.8764C48.5806 27.8028 48.5923 27.7326 48.6096 27.6678C48.6283 27.6023 48.6482 27.5497 48.671 27.5088C48.7135 27.429 48.7697 27.3554 48.8389 27.2853C48.9081 27.2164 48.9907 27.158 49.0866 27.1085C49.1812 27.0594 49.2905 27.0221 49.4157 26.997C49.5397 26.9716 49.6781 26.9618 49.83 26.9673C49.8699 26.9673 49.9139 26.9705 49.9634 26.9782C50.0139 26.987 50.0645 26.997 50.1165 27.0112C50.1684 27.0241 50.2189 27.0409 50.2668 27.0605C50.315 27.0803 50.3588 27.1033 50.3976 27.1305L50.2857 27.8764C50.2217 27.7644 50.1484 27.6898 50.0658 27.6514C49.9831 27.613 49.9018 27.5911 49.8206 27.5891C49.6807 27.5891 49.5716 27.6229 49.4916 27.6898C49.4105 27.7557 49.3651 27.8442 49.3543 27.9562C49.345 28.0604 49.3703 28.1416 49.4276 28.1995C49.4851 28.2579 49.5716 28.3084 49.6846 28.3478C49.8046 28.3882 49.9152 28.4276 50.0191 28.4649C50.123 28.5033 50.2137 28.5506 50.2909 28.6044C50.3681 28.6592 50.4321 28.7281 50.4842 28.8104C50.5373 28.8938 50.5705 29.0002 50.5868 29.1305C50.6 29.2337 50.592 29.3376 50.5653 29.4418C50.5373 29.5452 50.4961 29.6316 50.4414 29.7007C50.3963 29.7589 50.3417 29.8069 50.2762 29.8464C50.2124 29.8847 50.1432 29.9154 50.0699 29.9385C49.9979 29.9604 49.9219 29.9772 49.8447 29.9858C49.7673 29.9956 49.6901 30.0001 49.6128 30.0001C49.5382 30.0001 49.461 29.9956 49.381 29.9879C49.3024 29.9792 49.2237 29.9681 49.1493 29.9517C49.0732 29.9363 49.0014 29.9169 48.9346 29.8949C48.8682 29.8719 48.8122 29.8464 48.7628 29.8203L48.8122 29.1776Z" fill="#2A2C32"/>
<path fill-rule="evenodd" clip-rule="evenodd" d="M51.8047 26.9658H52.5229V28.0449H53.1094V26.9658H53.8274V29.6629H53.1094V28.5277H52.5229V29.6629H51.8047V26.9658Z" fill="#2A2C32"/>
<path fill-rule="evenodd" clip-rule="evenodd" d="M56.2652 27.5602C56.1638 27.5658 56.0814 27.5986 56.0191 27.6601C55.9571 27.7213 55.9081 27.796 55.8711 27.886C55.8352 27.975 55.8101 28.0727 55.797 28.1813C55.7838 28.2886 55.7778 28.3918 55.7778 28.4906C55.7778 28.5914 55.7838 28.6989 55.797 28.8119C55.8101 28.925 55.8352 29.0302 55.8711 29.13C55.9081 29.2288 55.9571 29.3112 56.0191 29.3781C56.0814 29.4437 56.1638 29.4778 56.2652 29.481C56.3632 29.4778 56.4431 29.4437 56.5065 29.3781C56.5688 29.3112 56.6176 29.2288 56.6534 29.13C56.6903 29.0302 56.7145 28.925 56.7275 28.8119C56.7405 28.6989 56.7467 28.5914 56.7467 28.4906C56.7467 28.3918 56.7405 28.2886 56.7275 28.1813C56.7145 28.0727 56.6903 27.975 56.6534 27.886C56.6176 27.796 56.5688 27.7213 56.5065 27.6601C56.4431 27.5986 56.3632 27.5658 56.2652 27.5602ZM56.2652 30.0001C56.0298 30.0001 55.8352 29.9551 55.6799 29.8661C55.5246 29.7772 55.4005 29.66 55.3071 29.5173C55.2153 29.3724 55.1496 29.2113 55.1101 29.0302C55.0706 28.8482 55.0504 28.666 55.0469 28.4829C55.0469 28.3018 55.0671 28.1209 55.1078 27.9398C55.1484 27.7587 55.2165 27.5954 55.3108 27.4507C55.404 27.3059 55.5294 27.1873 55.6848 27.0984C55.8388 27.0098 56.0324 26.9658 56.2652 26.9658C56.4935 26.9658 56.6857 27.0098 56.8411 27.0984C56.9951 27.1873 57.1204 27.3059 57.2149 27.4507C57.3092 27.5954 57.3761 27.7587 57.4156 27.9398C57.4537 28.1209 57.4741 28.3018 57.4741 28.4829C57.4741 28.666 57.4537 28.8482 57.4156 29.0302C57.3761 29.2113 57.3092 29.3724 57.2174 29.5173C57.1241 29.66 57.0009 29.7772 56.8457 29.8661C56.6903 29.9551 56.4968 30.0001 56.2652 30.0001Z" fill="#2A2C32"/>
<path fill-rule="evenodd" clip-rule="evenodd" d="M59.771 28.6564C59.7975 28.6867 59.8373 28.7113 59.8902 28.7305C59.9422 28.7495 60.0025 28.7526 60.0699 28.7427C60.1629 28.7212 60.2437 28.6586 60.3112 28.5543C60.3788 28.4513 60.409 28.311 60.4029 28.1349C60.398 27.9901 60.3776 27.8734 60.3438 27.785C60.31 27.6971 60.2655 27.6323 60.2099 27.5897C60.1545 27.547 60.0893 27.5245 60.0145 27.5223C59.9397 27.519 59.8589 27.5313 59.771 27.5583V28.6564ZM59.0859 30.0001V27.0312C59.1967 27.0312 59.3332 27.0208 59.4948 26.9998C59.6563 26.9773 59.8481 26.9658 60.075 26.9658C60.2664 26.9658 60.444 27.0097 60.6031 27.0971C60.7623 27.1835 60.8829 27.3136 60.965 27.4842C61.0145 27.5908 61.0518 27.7028 61.0748 27.822C61.0989 27.9408 61.1097 28.0575 61.1086 28.1751C61.1062 28.2918 61.0952 28.4041 61.0736 28.5115C61.0506 28.6193 61.0216 28.7124 60.9831 28.7922C60.9277 28.909 60.8564 29.0063 60.7708 29.0859C60.6838 29.1647 60.5873 29.2229 60.4801 29.2611C60.3739 29.2993 60.2594 29.3159 60.14 29.3113C60.0208 29.308 59.8976 29.2814 59.771 29.2317V30.0001H59.0859Z" fill="#2A2C32"/>
<path fill-rule="evenodd" clip-rule="evenodd" d="M42.5 16.5145V14.8289H43.3091V15.1462H42.8952V15.5152H43.2887V15.8164H42.8952V16.185H43.3091V16.5145H42.5Z" fill="#2A2C32"/>
<path fill-rule="evenodd" clip-rule="evenodd" d="M43.8635 16.0576C43.8989 16.1049 43.9479 16.1445 44.0105 16.1764C44.0737 16.2081 44.1363 16.2292 44.1984 16.2382C44.2611 16.2481 44.3169 16.2445 44.3669 16.227C44.4177 16.2104 44.4486 16.1776 44.4598 16.1281C44.4702 16.0861 44.4636 16.0439 44.4429 16.0017C44.4213 15.9607 44.3858 15.927 44.3349 15.9002C44.2866 15.8755 44.2339 15.8553 44.1777 15.8405C44.1216 15.8258 44.0667 15.8085 44.0139 15.7896C43.9607 15.7701 43.9108 15.7459 43.8651 15.7164C43.8203 15.6869 43.7843 15.6437 43.7589 15.588C43.7409 15.5489 43.7294 15.5079 43.7245 15.4637C43.7184 15.4194 43.7168 15.3762 43.7213 15.3346C43.7252 15.2936 43.7319 15.2547 43.7429 15.2183C43.754 15.1825 43.7652 15.153 43.7794 15.1309C43.8048 15.0866 43.8381 15.0451 43.88 15.0067C43.9214 14.9681 43.9711 14.9356 44.0283 14.9081C44.0856 14.8809 44.1511 14.8603 44.2263 14.8466C44.3001 14.8318 44.3838 14.8265 44.4747 14.8298C44.4983 14.8298 44.5251 14.8318 44.5546 14.8361C44.5845 14.8408 44.6151 14.8466 44.6466 14.854C44.6772 14.8613 44.7076 14.8708 44.7366 14.8819C44.7654 14.8929 44.7919 14.9056 44.8153 14.9203L44.749 15.3346C44.7089 15.2725 44.6653 15.231 44.6158 15.2099C44.5667 15.1878 44.5177 15.1772 44.4688 15.1751C44.3858 15.1751 44.3194 15.1941 44.271 15.231C44.2227 15.2679 44.1957 15.3174 44.1894 15.3795C44.1835 15.4374 44.1984 15.4822 44.2335 15.5142C44.2686 15.5468 44.3194 15.5743 44.3874 15.5964C44.4589 15.6185 44.5264 15.6404 44.5876 15.6617C44.6504 15.6831 44.7044 15.7095 44.751 15.739C44.7971 15.7696 44.8367 15.808 44.8675 15.8534C44.8981 15.8995 44.9184 15.9587 44.9287 16.0314C44.9364 16.0881 44.9319 16.1461 44.9159 16.204C44.8995 16.2618 44.8745 16.3093 44.8414 16.3482C44.8138 16.3803 44.7811 16.4072 44.7422 16.4288C44.7037 16.4504 44.6623 16.4672 44.6185 16.4799C44.5748 16.4924 44.5305 16.5015 44.4839 16.5067C44.4371 16.5113 44.3898 16.5145 44.3437 16.5145C44.2994 16.5145 44.2533 16.5125 44.206 16.5084C44.1588 16.5036 44.1113 16.4967 44.0658 16.4883C44.0206 16.4787 43.9781 16.4684 43.938 16.4556C43.898 16.443 43.8635 16.4293 43.8343 16.4146L43.8635 16.0576Z" fill="#2A2C32"/>
<path fill-rule="evenodd" clip-rule="evenodd" d="M44.9297 15.1462L44.9594 14.8289H46.1074L46.1433 15.1462H45.7673V16.5145H45.3245V15.1462H44.9297Z" fill="#2A2C32"/>
<path fill-rule="evenodd" clip-rule="evenodd" d="M46.7513 16.5145C46.6945 16.5145 46.6462 16.4983 46.6069 16.4656C46.5665 16.4336 46.5469 16.3938 46.5469 16.3467C46.5469 16.3002 46.5665 16.2601 46.6069 16.2271C46.6462 16.1946 46.6945 16.1774 46.7513 16.1774C46.8072 16.1774 46.854 16.1946 46.8936 16.2271C46.9318 16.2601 46.9514 16.3002 46.9514 16.3467C46.9514 16.3938 46.9318 16.4336 46.8936 16.4656C46.854 16.4983 46.8072 16.5145 46.7513 16.5145Z" fill="#2A2C32"/>
<path fill-rule="evenodd" clip-rule="evenodd" d="M41.2891 17.05C41.3659 16.99 41.4565 16.9416 41.562 16.9048C41.6662 16.8676 41.7839 16.8507 41.9141 16.8516C42.0504 16.8526 42.1623 16.8738 42.2486 16.9134C42.3353 16.9535 42.399 17.0071 42.4397 17.0746C42.4804 17.1426 42.5014 17.2215 42.5027 17.3103C42.5033 17.4003 42.4876 17.4958 42.4558 17.5959C42.4358 17.6566 42.4108 17.7142 42.3796 17.7701C42.3481 17.8252 42.313 17.8795 42.2742 17.9295C42.2347 17.981 42.1932 18.0304 42.1499 18.0775C42.1067 18.1248 42.0622 18.1719 42.0178 18.2167H42.4771V18.5373H41.3933V18.2816C41.4542 18.2373 41.5128 18.1902 41.5696 18.1419C41.6264 18.0939 41.6792 18.0433 41.7271 17.991C41.7498 17.9639 41.7775 17.9339 41.8087 17.9009C41.8396 17.8676 41.87 17.8322 41.8995 17.7947C41.9288 17.7571 41.9569 17.7175 41.9833 17.6757C42.0095 17.6352 42.031 17.5923 42.0469 17.5488C42.0634 17.5062 42.0729 17.463 42.0752 17.4187C42.078 17.3724 42.0716 17.3318 42.0551 17.2963C42.0392 17.2599 42.0118 17.2316 41.9726 17.2109C41.9335 17.1894 41.8795 17.1819 41.8105 17.188C41.7366 17.1955 41.6745 17.2194 41.6229 17.2599C41.5713 17.3007 41.5364 17.3496 41.5163 17.4068L41.2891 17.05Z" fill="#2A2C32"/>
<path fill-rule="evenodd" clip-rule="evenodd" d="M43.7151 17.1826C43.6107 17.1826 43.5336 17.2215 43.4829 17.3004C43.4333 17.3798 43.408 17.5112 43.408 17.6951C43.408 18.0644 43.5105 18.2493 43.7151 18.2493C43.9197 18.2493 44.0225 18.0644 44.0225 17.6951C44.0225 17.5112 43.9969 17.3798 43.9458 17.3004C43.8946 17.2215 43.8174 17.1826 43.7151 17.1826ZM43.7151 16.8516C43.8786 16.8516 44.0131 16.8775 44.1179 16.9287C44.2232 16.9792 44.3061 17.0456 44.3655 17.1267C44.4265 17.2076 44.4685 17.2989 44.4902 17.3984C44.5128 17.4985 44.5244 17.5966 44.5244 17.6951C44.5244 17.792 44.5128 17.8905 44.4902 17.9906C44.4685 18.0904 44.4265 18.1812 44.3655 18.2623C44.3061 18.3434 44.2232 18.4096 44.1179 18.4602C44.0131 18.5119 43.8786 18.5373 43.7151 18.5373C43.5518 18.5373 43.4178 18.5119 43.3118 18.4602C43.207 18.4096 43.1239 18.3434 43.0643 18.2623C43.0042 18.1812 42.9627 18.0904 42.9398 17.9906C42.9181 17.8905 42.9062 17.792 42.9062 17.6951C42.9062 17.5966 42.9181 17.4985 42.9398 17.3984C42.9627 17.2989 43.0042 17.2076 43.0643 17.1267C43.1239 17.0456 43.207 16.9792 43.3118 16.9287C43.4178 16.8775 43.5518 16.8516 43.7151 16.8516Z" fill="#2A2C32"/>
<path fill-rule="evenodd" clip-rule="evenodd" d="M45.2325 17.1887H45.7388V18.8744H45.1744V17.507H44.9297L45.2325 17.1887Z" fill="#2A2C32"/>
<path fill-rule="evenodd" clip-rule="evenodd" d="M46.0972 18.227H46.4188V17.5294H46.3997L46.0972 18.227ZM46.8048 18.227H46.948V18.5289H46.8048V18.8744H46.4188V18.5289H45.7344V18.2438L46.2221 17.1887H46.8048V18.227Z" fill="#2A2C32"/>
<path fill-rule="evenodd" clip-rule="evenodd" d="M14.1876 19.2115C14.1867 20.5903 14.1947 21.3679 14.2208 22.423C14.34 22.5813 14.4617 22.7436 14.592 22.9201C14.5687 22.0104 14.5588 21.3122 14.5556 20.3843L14.1876 19.2115Z" fill="#2A2C32"/>
<path fill-rule="evenodd" clip-rule="evenodd" d="M10.9453 20.223L13.3649 24.9965L13.0137 25.1234C12.4607 25.3239 12.0498 25.4774 11.5773 25.6605L11.7407 25.9544C12.5063 25.6518 13.0094 25.4611 13.7771 25.1823L11.5191 20.7282C11.3401 20.5695 11.1533 20.4058 10.9453 20.223Z" fill="#2A2C32"/>
<path fill-rule="evenodd" clip-rule="evenodd" d="M14.9084 12.1317C14.7962 12.1642 14.6897 12.1946 14.5859 12.2251C16.0233 15.7694 17.4607 19.3142 18.897 22.8594L19.0185 23.1589L18.6623 23.2611C18.1228 23.4172 17.7205 23.5368 17.2781 23.6743L17.3947 23.9315C18.153 23.6892 18.6599 23.5358 19.4405 23.3103C17.9305 19.5838 16.4194 15.8579 14.9084 12.1317Z" fill="#2A2C32"/>
<path fill-rule="evenodd" clip-rule="evenodd" d="M22.9647 18.5374C23.1641 18.4914 23.332 18.4521 23.4888 18.4167C23.4415 17.6805 23.3659 16.6386 23.2939 15.6712C23.0823 15.2661 22.8722 14.8617 22.6797 14.4917C22.7849 15.8811 22.9189 17.709 22.9647 18.5374Z" fill="#2A2C32"/>
<path fill-rule="evenodd" clip-rule="evenodd" d="M25.9187 20.4337L25.7999 20.223C24.6731 20.432 24.124 20.5422 23.0017 20.7834L23.068 21.6164L22.769 21.6814C22.2722 21.7892 21.8782 21.8782 21.4688 21.9752C21.4805 22.0651 21.4888 22.1551 21.5008 22.2458C22.2875 22.053 22.8142 21.9311 23.6212 21.7549C23.6051 21.5607 23.594 21.4064 23.575 21.1642L23.5557 20.9202L23.8556 20.8562C24.706 20.6736 25.2295 20.5654 25.9187 20.4337Z" fill="#2A2C32"/>
<path fill-rule="evenodd" clip-rule="evenodd" d="M23.3613 9.77173C23.2651 9.78995 23.1758 9.80836 23.0859 9.82553C25.1778 13.2801 27.1509 16.8094 28.9454 20.3298L29.1299 20.6901L28.6634 20.7672C28.1235 20.8562 27.6958 20.9291 27.2223 21.0164C27.2606 21.0886 27.2981 21.1584 27.3388 21.2344C28.1848 21.0735 28.7358 20.9756 29.5586 20.8397C27.6668 17.1296 25.5839 13.4088 23.3613 9.77173Z" fill="#2A2C32"/>
<path fill-rule="evenodd" clip-rule="evenodd" d="M31.9909 13.8174L32.9102 19.7787L32.5607 19.8211C32.037 19.886 31.6323 19.9383 31.1719 20.0045L31.2141 20.223C31.9614 20.1118 32.4532 20.0442 33.1946 19.953L32.3136 14.2413C32.2093 14.1036 32.1024 13.9635 31.9909 13.8174Z" fill="#2A2C32"/>
<path fill-rule="evenodd" clip-rule="evenodd" d="M38.7757 7.7489C38.6606 7.75526 38.552 7.76042 38.4445 7.76626L39.3428 19.2277L38.951 19.248C38.3113 19.2805 37.819 19.31 37.2422 19.3513C37.2851 19.4094 37.3255 19.4896 37.3683 19.5487C38.2582 19.4822 38.8109 19.448 39.6695 19.404L38.7757 7.7489Z" fill="#2A2C32"/>
<path fill-rule="evenodd" clip-rule="evenodd" d="M52.3888 14.4917L51.7716 19.6011L51.3747 19.5713C50.7791 19.5261 50.32 19.4959 49.8028 19.4665L49.7812 19.7448C50.6401 19.7876 51.2019 19.8232 52.0431 19.8859L52.6131 15.1688C52.5427 14.9579 52.4697 14.7383 52.3888 14.4917Z" fill="#2A2C32"/>
<path fill-rule="evenodd" clip-rule="evenodd" d="M55.8526 14.8289C55.1419 15.998 54.7472 16.6689 54.2344 17.5798C54.288 17.7789 54.3418 17.9819 54.399 18.2002C54.8448 17.4067 55.1955 16.8021 55.67 16.0107L55.8526 14.8289Z" fill="#2A2C32"/>
<path fill-rule="evenodd" clip-rule="evenodd" d="M60.3808 8.76038C59.9399 10.9653 59.4975 13.1694 59.0553 15.374L58.0672 20.2948L57.6993 20.242C57.1651 20.1639 56.7491 20.107 56.2955 20.0498L56.2578 20.2825C57.0419 20.3764 57.561 20.4454 58.35 20.5602L59.2751 15.9537C59.7539 13.5715 60.2314 11.1899 60.7078 8.80724C60.5946 8.79109 60.4866 8.77547 60.3808 8.76038Z" fill="#2A2C32"/>
<path fill-rule="evenodd" clip-rule="evenodd" d="M68.9138 10.7832C68.748 14.5863 68.426 18.4439 67.9478 22.2616L67.8995 22.6489L67.4345 22.5334C66.8986 22.3989 66.4779 22.298 65.9914 22.1861C65.9846 22.2545 65.9766 22.323 65.9688 22.3944C66.8412 22.5885 67.3971 22.7183 68.2082 22.9202C68.7119 18.9051 69.0474 14.847 69.2051 10.8462C69.1035 10.8237 69.0097 10.8036 68.9138 10.7832Z" fill="#2A2C32"/>
<path fill-rule="evenodd" clip-rule="evenodd" d="M65.4591 15.7603C65.4943 15.3244 65.5292 14.8895 65.5618 14.4917C64.8766 15.7188 63.9694 17.336 63.5391 18.0864C63.7469 18.1289 63.9237 18.1651 64.0877 18.2002C64.4594 17.5448 64.9793 16.6192 65.4591 15.7603Z" fill="#2A2C32"/>
<path fill-rule="evenodd" clip-rule="evenodd" d="M65.1592 20.7548C64.0691 20.527 63.5343 20.423 62.4318 20.223L61.9922 20.9422L61.6989 20.8906C61.2155 20.8049 60.8295 20.7385 60.4248 20.6726C60.3861 20.7445 60.3436 20.8163 60.3047 20.8876C61.0851 21.0068 61.6051 21.0927 62.3981 21.2344C62.492 21.0799 62.5685 20.9545 62.68 20.7722L62.8377 20.5135L63.1321 20.5664C63.9641 20.7175 64.4751 20.8135 65.139 20.949L65.1592 20.7548Z" fill="#2A2C32"/>
<path fill-rule="evenodd" clip-rule="evenodd" d="M74.3914 18.2002L71.8272 23.9418L71.4775 23.8303C70.9529 23.6607 70.5565 23.5365 70.1123 23.4019L70.0156 23.6446C70.7793 23.8688 71.2825 24.0234 72.0425 24.2687L74.4656 18.8451C74.4418 18.638 74.4181 18.4254 74.3914 18.2002Z" fill="#2A2C32"/>
<path fill-rule="evenodd" clip-rule="evenodd" d="M80.8115 20.1109C79.763 21.9717 78.7136 23.8336 77.6664 25.6945L77.5059 25.9798L77.1633 25.8468C76.6002 25.6276 76.1788 25.4669 75.6719 25.2808C75.6742 25.3583 75.6769 25.4338 75.6793 25.5126C76.4971 25.8062 76.9953 25.9923 77.7621 26.2915C78.8092 24.4296 79.8587 22.5687 80.9083 20.708C81.8599 19.019 82.8114 17.33 83.7628 15.6415C83.6393 15.593 83.522 15.5479 83.4075 15.5031L80.8115 20.1109Z" fill="#2A2C32"/>
<path fill-rule="evenodd" clip-rule="evenodd" d="M16.5906 23.2445C17.3462 23.003 17.8514 22.8495 18.6295 22.6246C17.1247 18.9014 15.618 15.1797 14.1115 11.4574C13.2619 12.0097 12.8177 12.2301 11.4892 12.2567C11.4282 13.8201 11.4148 14.6471 11.4216 16.2585L11.4243 17.0546L10.7734 16.4781C9.44575 15.3035 8.75834 14.7159 7.44329 13.6345C6.56219 14.3863 6.11773 14.4834 4.875 14.6044L10.8362 25.28C11.5867 24.9845 12.0806 24.7966 12.8339 24.5237L9.79996 18.5474L11.2248 19.7948C12.3394 20.7698 12.985 21.3508 13.9013 22.2073C13.8591 21.0669 13.8473 20.2682 13.8488 18.9001L13.8504 17.1821L16.5906 23.2445Z" fill="#2A2C32"/>
<path fill-rule="evenodd" clip-rule="evenodd" d="M22.3048 19.0701L22.2827 18.6742C22.202 17.2581 21.8558 12.9281 21.8558 12.9281C21.8558 12.9281 23.9453 16.8724 24.6722 18.1552L24.8749 18.5116L24.4233 18.6057C23.7544 18.7447 23.4202 18.8169 22.7541 18.968L22.3048 19.0701ZM25.4725 20.1623L25.7754 20.1012L25.9026 20.3433C26.0245 20.5771 26.103 20.7282 26.1994 20.914C27.016 20.7529 27.5496 20.6541 28.3453 20.5191C26.5159 16.8032 24.5019 13.0769 22.3531 9.43457C21.2383 10.0157 21.0534 10.1105 19.4453 10.0652C19.5958 14.1032 19.9126 18.198 20.3891 22.2458C21.1637 22.0412 21.6816 21.9111 22.4759 21.723C22.4602 21.515 22.4483 21.3507 22.43 21.0913L22.412 20.8321L22.7061 20.7634C23.817 20.5051 24.3605 20.3868 25.4725 20.1623Z" fill="#2A2C32"/>
<path fill-rule="evenodd" clip-rule="evenodd" d="M35.4191 7.58307L36.2257 14.6226L35.3826 13.4772C33.7252 11.2301 32.8473 10.1248 31.0281 8.00977C29.8884 8.4232 29.8884 8.4232 28.3438 8.35553L30.7059 19.8858C31.4971 19.7732 32.0175 19.7056 32.8032 19.6141L31.6642 12.5932L32.5611 13.7073C34.326 15.9011 35.161 17.0195 36.6777 19.2351C37.5228 19.1688 38.0477 19.1342 38.8619 19.0898L38.0141 7.41174C37.0681 7.66504 36.7736 7.74218 35.4191 7.58307Z" fill="#2A2C32"/>
<path fill-rule="evenodd" clip-rule="evenodd" d="M54.4477 12.1734L54.206 11.3961C53.7288 9.85842 53.467 9.07271 52.9395 7.59306C51.9132 7.62285 51.6627 7.85548 50.2235 7.41174L49.375 19.0898C50.1756 19.1328 50.6996 19.1676 51.4839 19.2294L52.2217 12.7815L52.7568 14.4709C53.1699 15.7755 53.4003 16.54 53.6998 17.625C54.3003 16.6145 54.736 15.917 55.4953 14.737L56.4711 13.2172L55.4348 19.6141C56.2194 19.7057 56.7393 19.7732 57.5312 19.8858L58.4579 15.3672C58.9376 13.0295 59.4161 10.6934 59.8931 8.3557C58.8068 8.45402 58.2539 8.45402 57.1913 8.0077C56.2709 9.33599 55.7975 10.0509 54.8985 11.4648L54.4477 12.1734Z" fill="#2A2C32"/>
<path fill-rule="evenodd" clip-rule="evenodd" d="M65.0646 18.9625C64.3982 18.8121 64.0629 18.7394 63.3939 18.6011L62.9423 18.5076L63.1462 18.1507C63.872 16.8691 65.9663 13.0693 65.9663 13.0693C65.9663 13.0693 65.616 17.2481 65.5351 18.6694L65.5137 19.065L65.0646 18.9625ZM65.3302 21.7156C66.1548 21.9106 66.6811 22.0422 67.4486 22.2458C67.9255 18.195 68.2441 14.1009 68.3922 10.0652C67.2083 10.048 66.7645 10.048 65.4845 9.43457C63.3368 13.0726 61.3235 16.7989 59.4922 20.5191C60.2803 20.6529 60.805 20.7499 61.6056 20.9082C61.7003 20.7345 61.7763 20.5939 61.8902 20.3903L62.0494 20.1002L62.3467 20.1595C63.4672 20.3845 64.0098 20.5017 65.1126 20.7594L65.4124 20.8284L65.3883 21.093C65.3644 21.3481 65.3492 21.5118 65.3302 21.7156Z" fill="#2A2C32"/>
<path fill-rule="evenodd" clip-rule="evenodd" d="M77.4953 18.8798C77.2979 16.2099 77.1448 14.8726 76.7308 12.2513C75.5855 12.2301 75.216 12.1676 74.1251 11.4574L69.6094 22.6237C70.3776 22.8468 70.8825 23.0003 71.6482 23.2446L74.6603 16.5833L74.82 17.914C75.1375 20.5701 75.2438 21.9026 75.3337 24.4994C76.1462 24.7928 76.641 24.9803 77.403 25.28C78.4432 23.4138 79.4859 21.5485 80.5276 19.6822C81.4742 17.9903 82.4197 16.2975 83.3639 14.6045C82.2855 14.4834 81.8046 14.3864 80.9098 13.676L77.5928 20.2117L77.4953 18.8798Z" fill="#2A2C32"/>
<path fill-rule="evenodd" clip-rule="evenodd" d="M39.0226 23.3685H34.3892C34.3835 23.3614 34.3816 23.3543 34.3752 23.3484L33.3857 23.0218C33.2393 22.8863 33.0008 22.8863 32.855 23.0218L32.5006 23.3484C32.354 23.4841 32.354 23.704 32.5006 23.8403L32.855 24.1665C33.0008 24.3028 33.2393 24.3028 33.3857 24.1665L34.3752 23.8403C34.3816 23.8344 34.3835 23.8267 34.3894 23.8204H39.0226C39.1582 23.8204 39.2679 23.7193 39.2679 23.594C39.2679 23.4692 39.1582 23.3685 39.0226 23.3685Z" fill="#2A2C32"/>
<path fill-rule="evenodd" clip-rule="evenodd" d="M55.7433 23.3484L55.3894 23.0218C55.2434 22.8863 55.0049 22.8863 54.8591 23.0218L53.8693 23.3484C53.8631 23.3543 53.8604 23.3614 53.8552 23.3685H49.2214C49.0869 23.3685 48.9766 23.4694 48.9766 23.594C48.9766 23.7193 49.0869 23.8206 49.2214 23.8206H53.8552C53.8604 23.8269 53.8631 23.834 53.8693 23.8403L54.8591 24.1665C55.0049 24.3028 55.2434 24.3028 55.3894 24.1665L55.7433 23.8403C55.8906 23.704 55.8906 23.4843 55.7433 23.3484Z" fill="#2A2C32"/>
<path fill-rule="evenodd" clip-rule="evenodd" d="M44.7158 22.7357C44.4725 22.5321 44.079 22.5321 43.8354 22.7357L41.4713 23.226C41.2283 23.4305 41.2283 23.7591 41.4713 23.9624L43.8354 24.453C44.079 24.6568 44.4725 24.6568 44.7158 24.453L47.1747 23.9624C47.4181 23.7591 47.4181 23.4305 47.1747 23.226L44.7158 22.7357Z" fill="#2A2C32"/>
<path fill-rule="evenodd" clip-rule="evenodd" d="M47.3555 19.2796C45.1989 19.1889 43.0388 19.1889 40.8828 19.2796V19.5487C43.0388 19.4583 45.1989 19.4583 47.3555 19.5487V19.2796Z" fill="#2A2C32"/>
<path fill-rule="evenodd" clip-rule="evenodd" d="M6.26447 20.5602C6.26039 20.611 6.26275 20.6625 6.24342 20.7127L6.05435 21.1975C6.00709 21.3194 5.92802 21.5047 0.835938 23.0797C0.892657 23.1607 0.984397 23.2268 1.10385 23.2573C1.10385 23.2573 6.2114 21.6809 6.28918 21.4807L6.47824 20.9959C6.54549 20.8238 6.44795 20.6486 6.26447 20.5602Z" fill="#2A2C32"/>
<mask id="mask0_12469_18482" style="mask-type:luminance" maskUnits="userSpaceOnUse" x="0" y="20" width="7" height="3">
<path d="M0.429688 20.0023H6.02099V22.8142H0.429688V20.0023Z" fill="white"/>
</mask>
<g mask="url(#mask0_12469_18482)">
<path fill-rule="evenodd" clip-rule="evenodd" d="M5.11191 20.0068L5.69799 20.1553C5.9409 20.2158 6.07619 20.4246 5.99963 20.6202L5.81504 21.0907C5.73868 21.2862 0.753026 22.8175 0.753026 22.8175C0.50991 22.7565 0.374403 22.5484 0.451176 22.3532C0.451176 22.3532 4.869 19.9456 5.11191 20.0068Z" fill="#2A2C32"/>
</g>
<path fill-rule="evenodd" clip-rule="evenodd" d="M82.9997 21.1975L82.8111 20.7127C82.7911 20.6625 82.7924 20.6114 82.7898 20.5602C82.6065 20.6486 82.5087 20.8238 82.576 20.9959L82.7647 21.4807C82.8427 21.6809 87.9503 23.2573 87.9503 23.2573C88.0704 23.2268 88.1616 23.1607 88.2183 23.0791C83.1265 21.5047 83.0472 21.3194 82.9997 21.1975Z" fill="#2A2C32"/>
<mask id="mask1_12469_18482" style="mask-type:luminance" maskUnits="userSpaceOnUse" x="83" y="20" width="6" height="3">
<path d="M83.0391 20.0023H88.4303V22.8142H83.0391V20.0023Z" fill="white"/>
</mask>
<g mask="url(#mask1_12469_18482)">
<path fill-rule="evenodd" clip-rule="evenodd" d="M83.9159 20.0068L83.3507 20.1553C83.1159 20.2158 82.9854 20.4246 83.0601 20.6202L83.2375 21.0907C83.3109 21.2862 88.1197 22.8175 88.1197 22.8175C88.3533 22.7565 88.4838 22.5484 88.4094 22.3532C88.4094 22.3532 84.1507 19.9456 83.9159 20.0068Z" fill="#2A2C32"/>
</g>
<path fill-rule="evenodd" clip-rule="evenodd" d="M50.6395 0.669067C50.6268 0.75093 50.6042 0.831224 50.5576 0.909255C48.4181 4.38909 46.6365 7.89401 45.1085 11.6252C44.9722 11.9927 44.5807 12.244 44.125 12.2729C44.2042 12.4398 44.357 12.5788 44.5725 12.6345C44.7222 12.6728 44.8743 12.6671 45.0122 12.6279C45.7053 13.4549 45.4263 14.0598 45.4263 14.0598C45.6694 14.2364 46.1606 14.2328 46.0313 13.457C45.9906 13.2013 45.7749 12.743 45.4873 12.2122C47.0068 8.5031 48.8109 4.94837 50.9534 1.46505C51.0971 1.22381 50.9029 0.879819 50.6395 0.669067Z" fill="#2A2C32"/>
<mask id="mask2_12469_18482" style="mask-type:luminance" maskUnits="userSpaceOnUse" x="38" y="0" width="13" height="13">
<path d="M38.5547 0H50.1647V12.3287H38.5547V0Z" fill="white"/>
</mask>
<g mask="url(#mask2_12469_18482)">
<path fill-rule="evenodd" clip-rule="evenodd" d="M44.1302 11.763C43.9067 11.812 43.6776 11.6976 43.62 11.5066C43.5607 11.3146 43.6953 11.1203 43.9188 11.0702C44.143 11.021 44.371 11.1349 44.4289 11.3253C44.4879 11.5174 44.354 11.7127 44.1302 11.763ZM39.1541 1.28597C39.7201 1.80391 41.695 5.71814 41.8438 6.98119C41.8438 6.98119 39.3408 2.20202 39.1541 1.28597ZM44.6306 11.887C46.1557 8.14233 47.9671 4.55225 50.1147 1.03561C50.298 0.729202 49.944 0.255538 49.5876 0.0968883C49.2311 -0.0628153 48.5675 -0.0389212 48.379 0.272931C46.6159 3.43099 45.1083 6.63174 43.831 9.9393C43.8306 9.9386 43.8301 9.93772 43.8297 9.93702C43.7231 9.75571 43.633 9.59811 43.5663 9.47372C43.076 8.56628 42.7197 7.94696 42.7763 7.79253C43.5856 7.4668 43.6165 7.0476 43.6282 6.61276C43.6371 6.18056 40.9137 0.877662 40.7317 0.609556C40.5485 0.334423 40.48 0.17349 39.5124 0.526278C38.5467 0.879243 38.5218 1.16404 38.5677 1.47273C39.1226 3.12722 42.0481 8.9593 43.3388 11.2443C43.3411 11.2417 43.343 11.2392 43.3452 11.2366C43.3113 11.3294 43.2755 11.4213 43.2419 11.5142C43.1192 11.8487 43.3343 12.2017 43.7188 12.3018C44.1031 12.4018 44.5093 12.215 44.6306 11.887Z" fill="#2A2C32"/>
</g>
<path fill-rule="evenodd" clip-rule="evenodd" d="M44.0164 10.8528C44.0531 10.8452 44.0885 10.8446 44.1233 10.8483C44.0673 10.7967 43.9806 10.7705 43.8929 10.7892C43.7684 10.8158 43.6934 10.919 43.7266 11.0208C43.7398 11.0633 43.7719 11.0959 43.8112 11.1203C43.7838 11.0011 43.8712 10.8839 44.0164 10.8528Z" fill="#2A2C32"/>
</svg>
