<svg width="85" height="22" viewBox="0 0 85 22" fill="none" xmlns="http://www.w3.org/2000/svg">
<g clipPath="url(#clip0_12469_18469)">
<path d="M10.0189 11.0949H9.40694L13.5349 4.02686H14.8909V11.8029H13.5349V5.98286L13.8469 6.06686L10.4629 11.8029H8.97494L5.59094 6.09086L5.91494 5.99486V11.8029H4.54694V4.02686H5.91494L10.0189 11.0949ZM22.1579 11.9469C21.2459 11.9469 20.4499 11.7829 19.7699 11.4549C19.0979 11.1269 18.5739 10.6629 18.1979 10.0629C17.8299 9.46286 17.6459 8.74686 17.6459 7.91486C17.6459 7.08286 17.8299 6.36686 18.1979 5.76686C18.5739 5.15886 19.0979 4.69486 19.7699 4.37486C20.4499 4.04686 21.2459 3.88286 22.1579 3.88286C23.0779 3.88286 23.8739 4.04686 24.5459 4.37486C25.2179 4.69486 25.7379 5.15886 26.1059 5.76686C26.4819 6.36686 26.6699 7.08286 26.6699 7.91486C26.6699 8.74686 26.4819 9.46286 26.1059 10.0629C25.7379 10.6629 25.2179 11.1269 24.5459 11.4549C23.8739 11.7829 23.0779 11.9469 22.1579 11.9469ZM22.1579 10.7469C22.7659 10.7469 23.3019 10.6429 23.7659 10.4349C24.2299 10.2269 24.5939 9.91486 24.8579 9.49886C25.1299 9.07486 25.2659 8.54686 25.2659 7.91486C25.2659 7.29086 25.1299 6.77086 24.8579 6.35486C24.5939 5.93086 24.2299 5.61486 23.7659 5.40686C23.3019 5.19086 22.7659 5.08286 22.1579 5.08286C21.5579 5.08286 21.0219 5.19086 20.5499 5.40686C20.0779 5.61486 19.7059 5.93086 19.4339 6.35486C19.1619 6.77086 19.0259 7.29086 19.0259 7.91486C19.0259 8.54686 19.1619 9.07486 19.4339 9.49886C19.7059 9.91486 20.0779 10.2269 20.5499 10.4349C21.0219 10.6429 21.5579 10.7469 22.1579 10.7469ZM28.9192 9.22286H30.2512C30.2832 9.51886 30.3992 9.78686 30.5992 10.0269C30.8072 10.2589 31.0792 10.4429 31.4152 10.5789C31.7592 10.7069 32.1512 10.7709 32.5912 10.7709C32.9832 10.7709 33.3072 10.7229 33.5632 10.6269C33.8192 10.5309 34.0072 10.3989 34.1272 10.2309C34.2552 10.0549 34.3192 9.85086 34.3192 9.61886C34.3192 9.38686 34.2432 9.20686 34.0912 9.07886C33.9472 8.94286 33.7232 8.83086 33.4192 8.74286C33.1152 8.64686 32.7272 8.55486 32.2552 8.46686C31.8632 8.39486 31.4832 8.29886 31.1152 8.17886C30.7472 8.05886 30.4152 7.90686 30.1192 7.72286C29.8312 7.53886 29.6032 7.31486 29.4352 7.05086C29.2672 6.77886 29.1832 6.45886 29.1832 6.09086C29.1832 5.67486 29.2992 5.29886 29.5312 4.96286C29.7712 4.62686 30.1232 4.36286 30.5872 4.17086C31.0512 3.97886 31.6152 3.88286 32.2792 3.88286C33.2952 3.88286 34.0712 4.11886 34.6072 4.59086C35.1432 5.05486 35.4032 5.68686 35.3872 6.48686H34.0792C34.0552 5.98286 33.8712 5.61886 33.5272 5.39486C33.1832 5.17086 32.7472 5.05886 32.2192 5.05886C31.7472 5.05886 31.3512 5.14286 31.0312 5.31086C30.7112 5.47886 30.5512 5.75086 30.5512 6.12686C30.5512 6.28686 30.5872 6.42686 30.6592 6.54686C30.7392 6.65886 30.8672 6.76286 31.0432 6.85886C31.2192 6.94686 31.4592 7.03486 31.7632 7.12286C32.0752 7.20286 32.4552 7.29086 32.9032 7.38686C33.2872 7.45086 33.6472 7.53886 33.9832 7.65086C34.3192 7.76286 34.6112 7.90286 34.8592 8.07086C35.1152 8.23886 35.3152 8.45486 35.4592 8.71886C35.6032 8.98286 35.6752 9.30686 35.6752 9.69086C35.6752 10.1309 35.5632 10.5229 35.3392 10.8669C35.1152 11.2029 34.7712 11.4709 34.3072 11.6709C33.8512 11.8629 33.2592 11.9589 32.5312 11.9589C31.9792 11.9589 31.4952 11.8949 31.0792 11.7669C30.6712 11.6309 30.3232 11.4589 30.0352 11.2509C29.7472 11.0349 29.5152 10.8029 29.3392 10.5549C29.1712 10.3069 29.0512 10.0669 28.9792 9.83486C28.9152 9.59486 28.8952 9.39086 28.9192 9.22286ZM41.0716 8.02286L41.0596 7.36286L46.0276 11.8029H44.0956L39.6436 7.72286L43.5916 4.02686H45.4996L41.0716 8.02286ZM38.2876 4.02686H39.6556V11.8029H38.2876V4.02686ZM51.6798 11.9469C50.7678 11.9469 49.9718 11.7829 49.2918 11.4549C48.6198 11.1269 48.0958 10.6629 47.7198 10.0629C47.3518 9.46286 47.1678 8.74686 47.1678 7.91486C47.1678 7.08286 47.3518 6.36686 47.7198 5.76686C48.0958 5.15886 48.6198 4.69486 49.2918 4.37486C49.9718 4.04686 50.7678 3.88286 51.6798 3.88286C52.5998 3.88286 53.3958 4.04686 54.0678 4.37486C54.7398 4.69486 55.2598 5.15886 55.6278 5.76686C56.0038 6.36686 56.1918 7.08286 56.1918 7.91486C56.1918 8.74686 56.0038 9.46286 55.6278 10.0629C55.2598 10.6629 54.7398 11.1269 54.0678 11.4549C53.3958 11.7829 52.5998 11.9469 51.6798 11.9469ZM51.6798 10.7469C52.2878 10.7469 52.8238 10.6429 53.2878 10.4349C53.7518 10.2269 54.1158 9.91486 54.3798 9.49886C54.6518 9.07486 54.7878 8.54686 54.7878 7.91486C54.7878 7.29086 54.6518 6.77086 54.3798 6.35486C54.1158 5.93086 53.7518 5.61486 53.2878 5.40686C52.8238 5.19086 52.2878 5.08286 51.6798 5.08286C51.0798 5.08286 50.5438 5.19086 50.0718 5.40686C49.5998 5.61486 49.2278 5.93086 48.9558 6.35486C48.6838 6.77086 48.5478 7.29086 48.5478 7.91486C48.5478 8.54686 48.6838 9.07486 48.9558 9.49886C49.2278 9.91486 49.5998 10.2269 50.0718 10.4349C50.5438 10.6429 51.0798 10.7469 51.6798 10.7469ZM60.9355 11.8029L57.8275 4.02686H59.3155L61.9555 10.8669H61.5235L64.0435 4.02686H65.5915L68.1115 10.8669H67.6795L70.3195 4.02686H71.7835L68.7115 11.8029H67.1035L64.6195 4.97486H65.0275L62.5315 11.8029H60.9355ZM54.6282 18.8029V14.9149H56.6082C57.0842 14.9149 57.4482 15.0049 57.7002 15.1849C57.9562 15.3609 58.0842 15.6169 58.0842 15.9529C58.0842 16.1689 58.0342 16.3409 57.9342 16.4689C57.8382 16.5929 57.7002 16.6869 57.5202 16.7509C57.3402 16.8109 57.1282 16.8489 56.8842 16.8649L56.9082 16.8289C57.0842 16.8329 57.2502 16.8489 57.4062 16.8769C57.5662 16.9009 57.7062 16.9449 57.8262 17.0089C57.9502 17.0729 58.0462 17.1629 58.1142 17.2789C58.1862 17.3909 58.2222 17.5369 58.2222 17.7169C58.2222 17.9569 58.1622 18.1549 58.0422 18.3109C57.9222 18.4669 57.7562 18.5869 57.5442 18.6709C57.3322 18.7509 57.0882 18.7949 56.8122 18.8029H54.6282ZM55.3122 18.2209H56.7102C56.9702 18.2209 57.1722 18.1769 57.3162 18.0889C57.4602 17.9969 57.5322 17.8549 57.5322 17.6629C57.5322 17.5109 57.4882 17.4009 57.4002 17.3329C57.3122 17.2609 57.1982 17.2149 57.0582 17.1949C56.9222 17.1749 56.7762 17.1649 56.6202 17.1649H55.3122V18.2209ZM55.3122 16.5949H56.5662C56.8262 16.5949 57.0262 16.5509 57.1662 16.4629C57.3102 16.3709 57.3822 16.2269 57.3822 16.0309C57.3822 15.8389 57.3102 15.7029 57.1662 15.6229C57.0262 15.5389 56.8422 15.4969 56.6142 15.4969H55.3122V16.5949ZM60.2247 17.1469V18.2149H62.9547V18.8029H59.5407V14.9149H62.9487V15.5029H60.2247V16.5829H62.4567V17.1469H60.2247ZM64.9228 17.8909V17.3089H67.2388V17.8909H64.9228ZM64.0228 18.8029L65.7208 14.9149H66.4528L68.1628 18.8029H67.4248L65.9368 15.2929H66.2368L64.7548 18.8029H64.0228ZM72.5416 17.1649V14.9149H73.2196V17.2189C73.2196 17.4629 73.1856 17.6769 73.1176 17.8609C73.0536 18.0449 72.9616 18.2009 72.8416 18.3289C72.7216 18.4569 72.5796 18.5629 72.4156 18.6469C72.2516 18.7269 72.0716 18.7849 71.8756 18.8209C71.6836 18.8569 71.4796 18.8749 71.2636 18.8749C71.0396 18.8749 70.8276 18.8569 70.6276 18.8209C70.4276 18.7849 70.2456 18.7269 70.0816 18.6469C69.9176 18.5629 69.7756 18.4569 69.6556 18.3289C69.5396 18.2009 69.4476 18.0449 69.3796 17.8609C69.3156 17.6769 69.2836 17.4629 69.2836 17.2189V14.9149H69.9676V17.1649C69.9676 17.4689 70.0236 17.7009 70.1356 17.8609C70.2516 18.0169 70.4076 18.1249 70.6036 18.1849C70.7996 18.2449 71.0196 18.2749 71.2636 18.2749C71.4996 18.2749 71.7136 18.2449 71.9056 18.1849C72.0976 18.1249 72.2516 18.0169 72.3676 17.8609C72.4836 17.7009 72.5416 17.4689 72.5416 17.1649ZM74.3928 14.9149H78.1248V15.5029H74.3928V14.9149ZM75.9228 15.4309H76.6008V18.8029H75.9228V15.4309ZM82.8706 14.9149L81.2866 17.5369V18.8029H80.6026V17.5369L79.0186 14.9149H79.8046L81.1426 17.2069H80.7706L82.0906 14.9149H82.8706Z" fill="#2A2C32"/>
<path fill-rule="evenodd" clip-rule="evenodd" d="M80.6277 3.08327C79.6119 3.18646 79.8984 4.01023 78.8133 4.89434C78.1363 5.4437 77.6675 5.72666 77.1467 6.13032C75.9662 7.04872 75.2976 8.09574 75.3238 9.64062C75.6014 7.15159 77.6328 5.9843 78.4661 5.3748C77.2596 6.42182 76.7039 7.28874 76.3481 8.00131C75.5928 9.51159 75.5581 10.6275 77.0773 11.7345C77.7024 12.181 78.5704 12.7215 78.7179 13.966C78.3446 13.3309 77.5025 12.6272 76.8082 12.4297C78.2405 13.5199 78.9089 14.3522 78.6919 15.8029C78.2143 13.8118 75.8533 13.2024 74.7508 11.4942C72.1726 7.19442 77.051 6.42182 78.4573 4.35353C76.9643 5.81275 74.8549 6.17315 73.848 8.32721C74.4208 6.13032 75.2715 5.4609 75.9311 4.97157C77.0858 4.13894 78.301 3.86421 78.8565 2.30245C77.9365 3.85598 77.0598 3.92456 75.7403 4.79971C74.6899 5.49519 73.6829 6.56794 73.4226 8.99663C72.303 6.67925 73.579 3.43513 75.2543 1.98477C76.9904 0.482723 79.1432 0.182355 80.9227 2.44814C83.2493 3.80418 84.0825 6.87686 80.9749 10.7218C83.2145 7.61485 82.7109 4.87715 81.3915 3.76978C82.9454 6.00128 81.9645 8.10418 81.053 9.96663C80.4887 11.1165 80.6537 11.374 81.1485 12.5414C80.2543 11.7688 80.4973 11.0565 79.5426 10.2842C78.8915 9.76912 78.0842 9.45156 77.5372 8.86791C77.2421 8.5417 77.1467 8.18995 77.5372 7.32292C77.7456 6.8854 77.9713 6.80817 78.2229 6.97107C78.4573 7.13428 79.2387 7.82079 79.3429 7.23715C79.369 7.07393 79.3343 6.97961 79.5163 6.90249C79.6379 6.85101 79.7594 6.87675 79.7247 6.70499C79.7073 6.61922 79.7334 6.58493 79.8375 6.56784C79.959 6.54209 79.9504 6.49926 79.933 6.36179C79.8809 6.02703 80.1499 6.06997 80.315 6.01848C80.4711 5.96699 80.4711 5.84704 80.4278 5.70946C80.4018 5.63234 80.3845 5.55511 80.3585 5.47799C80.2802 5.20326 80.2716 5.02295 80.3064 4.83431L80.6101 4.79971L80.3411 4.69684C80.5754 4.13029 80.749 3.87307 80.6276 3.08338L80.6277 3.08327ZM81.3308 5.02295C81.487 5.70946 81.4262 6.43068 81.2526 7.09156C80.9489 8.23289 80.454 8.61903 80.2196 10.0096C80.289 8.5418 80.7405 8.06134 81.0443 7.01401C81.2092 6.44777 81.3134 5.79555 81.3308 5.02295ZM76.7039 1.45262C74.5686 2.43949 73.4054 4.8168 73.3707 7.10865C73.8134 4.8686 74.5339 2.94601 76.7039 1.45262Z" fill="#2A2C32"/>
</g>
<defs>
<clipPath id="clip0_12469_18469">
<rect width="85" height="20.91" fill="white" transform="translate(0 0.545044)"/>
</clipPath>
</defs>
</svg>
