<svg width="89" height="30" viewBox="0 0 89 30" fill="none" xmlns="http://www.w3.org/2000/svg">
<g clipPath="url(#clip0_12469_18474)">
<path d="M6.84867 18C6.71667 18 6.60867 17.958 6.52467 17.874C6.44067 17.79 6.39867 17.682 6.39867 17.55V5.85C6.39867 5.718 6.44067 5.61 6.52467 5.526C6.60867 5.442 6.71667 5.4 6.84867 5.4H14.6067C14.7387 5.4 14.8467 5.442 14.9307 5.526C15.0147 5.61 15.0567 5.718 15.0567 5.85V7.65C15.0567 7.782 15.0147 7.896 14.9307 7.992C14.8467 8.076 14.7387 8.118 14.6067 8.118H9.62067V17.55C9.62067 17.682 9.57867 17.79 9.49467 17.874C9.41067 17.958 9.30267 18 9.17067 18H6.84867ZM17.0088 18C16.8768 18 16.7688 17.958 16.6848 17.874C16.6008 17.79 16.5588 17.682 16.5588 17.55V5.85C16.5588 5.718 16.6008 5.61 16.6848 5.526C16.7688 5.442 16.8768 5.4 17.0088 5.4H22.0488C23.0448 5.4 23.9088 5.556 24.6408 5.868C25.3848 6.168 25.9608 6.624 26.3688 7.236C26.7888 7.848 26.9988 8.622 26.9988 9.558C26.9988 10.482 26.7888 11.244 26.3688 11.844C25.9608 12.444 25.3848 12.888 24.6408 13.176C23.9088 13.464 23.0448 13.608 22.0488 13.608H19.9068V17.55C19.9068 17.682 19.8588 17.79 19.7628 17.874C19.6788 17.958 19.5708 18 19.4388 18H17.0088ZM19.8528 11.124H21.9588C22.4748 11.124 22.8828 10.992 23.1828 10.728C23.4948 10.464 23.6508 10.062 23.6508 9.522C23.6508 9.066 23.5188 8.682 23.2548 8.37C22.9908 8.058 22.5588 7.902 21.9588 7.902H19.8528V11.124ZM33.8709 18.18C32.7669 18.18 31.8069 18 30.9909 17.64C30.1749 17.28 29.5389 16.74 29.0829 16.02C28.6269 15.288 28.3749 14.376 28.3269 13.284C28.3149 12.768 28.3089 12.252 28.3089 11.736C28.3089 11.22 28.3149 10.698 28.3269 10.17C28.3749 9.09 28.6269 8.184 29.0829 7.452C29.5509 6.708 30.1929 6.15 31.0089 5.778C31.8249 5.406 32.7789 5.22 33.8709 5.22C34.9509 5.22 35.8989 5.406 36.7149 5.778C37.5429 6.15 38.1909 6.708 38.6589 7.452C39.1269 8.184 39.3789 9.09 39.4149 10.17C39.4389 10.698 39.4509 11.22 39.4509 11.736C39.4509 12.252 39.4389 12.768 39.4149 13.284C39.3669 14.376 39.1149 15.288 38.6589 16.02C38.2029 16.74 37.5669 17.28 36.7509 17.64C35.9349 18 34.9749 18.18 33.8709 18.18ZM33.8709 15.588C34.5069 15.588 35.0229 15.396 35.4189 15.012C35.8269 14.628 36.0429 14.016 36.0669 13.176C36.0909 12.648 36.1029 12.15 36.1029 11.682C36.1029 11.214 36.0909 10.728 36.0669 10.224C36.0429 9.66 35.9349 9.204 35.7429 8.856C35.5629 8.496 35.3109 8.232 34.9869 8.064C34.6629 7.896 34.2909 7.812 33.8709 7.812C33.4629 7.812 33.0969 7.896 32.7729 8.064C32.4489 8.232 32.1909 8.496 31.9989 8.856C31.8069 9.204 31.6989 9.66 31.6749 10.224C31.6629 10.728 31.6569 11.214 31.6569 11.682C31.6569 12.15 31.6629 12.648 31.6749 13.176C31.7109 14.016 31.9269 14.628 32.3229 15.012C32.7189 15.396 33.2349 15.588 33.8709 15.588ZM41.9873 18C41.8673 18 41.7593 17.958 41.6633 17.874C41.5793 17.79 41.5373 17.682 41.5373 17.55V5.85C41.5373 5.718 41.5793 5.61 41.6633 5.526C41.7593 5.442 41.8673 5.4 41.9873 5.4H43.9313C44.1233 5.4 44.2673 5.454 44.3633 5.562C44.4713 5.658 44.5373 5.736 44.5613 5.796L47.7293 11.484L50.8973 5.796C50.9333 5.736 50.9933 5.658 51.0773 5.562C51.1733 5.454 51.3233 5.4 51.5273 5.4H53.4533C53.5853 5.4 53.6933 5.442 53.7773 5.526C53.8733 5.61 53.9213 5.718 53.9213 5.85V17.55C53.9213 17.682 53.8733 17.79 53.7773 17.874C53.6933 17.958 53.5853 18 53.4533 18H51.3113C51.1793 18 51.0653 17.958 50.9693 17.874C50.8853 17.79 50.8433 17.682 50.8433 17.55V10.8L48.8093 14.562C48.7613 14.67 48.6893 14.766 48.5933 14.85C48.4973 14.934 48.3653 14.976 48.1973 14.976H47.2613C47.0933 14.976 46.9613 14.934 46.8653 14.85C46.7693 14.766 46.6913 14.67 46.6313 14.562L44.5973 10.8V17.55C44.5973 17.682 44.5553 17.79 44.4713 17.874C44.3873 17.958 44.2793 18 44.1473 18H41.9873ZM63.608 18C63.476 18 63.368 17.958 63.284 17.874C63.2 17.79 63.158 17.682 63.158 17.55V13.68C62.966 13.836 62.726 13.968 62.438 14.076C62.15 14.184 61.838 14.262 61.502 14.31C61.178 14.358 60.848 14.382 60.512 14.382C58.988 14.382 57.854 14.01 57.11 13.266C56.366 12.51 55.994 11.358 55.994 9.81V5.85C55.994 5.718 56.036 5.61 56.12 5.526C56.216 5.442 56.324 5.4 56.444 5.4H58.784C58.916 5.4 59.024 5.442 59.108 5.526C59.192 5.61 59.234 5.718 59.234 5.85V9.666C59.234 10.266 59.384 10.71 59.684 10.998C59.984 11.274 60.482 11.412 61.178 11.412C61.37 11.412 61.58 11.394 61.808 11.358C62.036 11.322 62.252 11.262 62.456 11.178C62.66 11.094 62.828 10.98 62.96 10.836C63.092 10.692 63.158 10.518 63.158 10.314V5.85C63.158 5.718 63.2 5.61 63.284 5.526C63.368 5.442 63.476 5.4 63.608 5.4H65.93C66.062 5.4 66.17 5.442 66.254 5.526C66.338 5.61 66.38 5.718 66.38 5.85V17.55C66.38 17.682 66.338 17.79 66.254 17.874C66.17 17.958 66.062 18 65.93 18H63.608ZM69.462 18C69.33 18 69.222 17.958 69.138 17.874C69.054 17.79 69.012 17.682 69.012 17.55V5.85C69.012 5.718 69.054 5.61 69.138 5.526C69.222 5.442 69.33 5.4 69.462 5.4H77.868C78 5.4 78.108 5.442 78.192 5.526C78.276 5.61 78.318 5.718 78.318 5.85V7.542C78.318 7.674 78.276 7.782 78.192 7.866C78.108 7.95 78 7.992 77.868 7.992H72.126V10.422H77.472C77.604 10.422 77.712 10.47 77.796 10.566C77.88 10.65 77.922 10.758 77.922 10.89V12.456C77.922 12.576 77.88 12.684 77.796 12.78C77.712 12.864 77.604 12.906 77.472 12.906H72.126V15.408H78.012C78.144 15.408 78.252 15.45 78.336 15.534C78.42 15.618 78.462 15.726 78.462 15.858V17.55C78.462 17.682 78.42 17.79 78.336 17.874C78.252 17.958 78.144 18 78.012 18H69.462ZM80.544 14.022C80.412 14.022 80.31 13.98 80.238 13.896C80.178 13.8 80.16 13.692 80.184 13.572L81.84 5.85C81.864 5.718 81.924 5.61 82.02 5.526C82.128 5.442 82.248 5.4 82.38 5.4H84.45C84.57 5.4 84.666 5.442 84.738 5.526C84.81 5.61 84.834 5.718 84.81 5.85L83.172 13.572C83.148 13.692 83.076 13.8 82.956 13.896C82.848 13.98 82.734 14.022 82.614 14.022H80.544ZM79.626 18C79.506 18 79.41 17.958 79.338 17.874C79.266 17.79 79.242 17.682 79.266 17.55L79.734 15.336C79.758 15.204 79.824 15.096 79.932 15.012C80.04 14.916 80.16 14.868 80.292 14.868H82.506C82.626 14.868 82.722 14.916 82.794 15.012C82.866 15.096 82.89 15.204 82.866 15.336L82.38 17.55C82.356 17.682 82.29 17.79 82.182 17.874C82.086 17.958 81.972 18 81.84 18H79.626Z" fill="#2A2C32"/>
<path d="M17.5685 25.8047C17.5025 25.8047 17.4485 25.7837 17.4065 25.7417C17.3645 25.6997 17.3435 25.6457 17.3435 25.5797V21.3497C17.3435 21.2837 17.3645 21.2297 17.4065 21.1877C17.4485 21.1457 17.5025 21.1247 17.5685 21.1247H18.5765C18.6365 21.1247 18.6875 21.1457 18.7295 21.1877C18.7775 21.2297 18.8015 21.2837 18.8015 21.3497V24.6257H19.8455V21.3497C19.8455 21.2837 19.8665 21.2297 19.9085 21.1877C19.9505 21.1457 20.0045 21.1247 20.0705 21.1247H20.9885C21.0545 21.1247 21.1085 21.1457 21.1505 21.1877C21.1925 21.2297 21.2135 21.2837 21.2135 21.3497V24.6257H22.2575V21.3497C22.2575 21.2837 22.2785 21.2297 22.3205 21.1877C22.3685 21.1457 22.4225 21.1247 22.4825 21.1247H23.4905C23.5565 21.1247 23.6105 21.1457 23.6525 21.1877C23.6945 21.2297 23.7155 21.2837 23.7155 21.3497V25.5797C23.7155 25.6457 23.6945 25.6997 23.6525 25.7417C23.6105 25.7837 23.5565 25.8047 23.4905 25.8047H17.5685ZM25.1292 25.8047C25.0632 25.8047 25.0092 25.7837 24.9672 25.7417C24.9252 25.6997 24.9042 25.6457 24.9042 25.5797V21.3497C24.9042 21.2837 24.9252 21.2297 24.9672 21.1877C25.0092 21.1457 25.0632 21.1247 25.1292 21.1247H26.1642C26.2302 21.1247 26.2842 21.1457 26.3262 21.1877C26.3682 21.2297 26.3892 21.2837 26.3892 21.3497V22.8437H26.8752L27.8562 21.2687C27.8742 21.2387 27.9042 21.2087 27.9462 21.1787C27.9882 21.1427 28.0422 21.1247 28.1082 21.1247H29.2602C29.3142 21.1247 29.3592 21.1427 29.3952 21.1787C29.4372 21.2087 29.4582 21.2507 29.4582 21.3047C29.4582 21.3227 29.4522 21.3437 29.4402 21.3677C29.4342 21.3917 29.4252 21.4127 29.4132 21.4307L28.1802 23.3927L29.6202 25.5077C29.6442 25.5437 29.6562 25.5827 29.6562 25.6247C29.6562 25.6787 29.6382 25.7237 29.6022 25.7597C29.5662 25.7897 29.5182 25.8047 29.4582 25.8047H28.1892C28.1232 25.8047 28.0692 25.7927 28.0272 25.7687C27.9912 25.7387 27.9582 25.7027 27.9282 25.6607L26.8572 24.0227H26.3892V25.5797C26.3892 25.6457 26.3682 25.6997 26.3262 25.7417C26.2842 25.7837 26.2302 25.8047 26.1642 25.8047H25.1292ZM32.6662 25.8947C32.1622 25.8947 31.7362 25.8137 31.3882 25.6517C31.0462 25.4897 30.7822 25.2587 30.5962 24.9587C30.4162 24.6527 30.3142 24.2897 30.2902 23.8697C30.2842 23.7497 30.2812 23.6147 30.2812 23.4647C30.2812 23.3087 30.2842 23.1737 30.2902 23.0597C30.3142 22.6337 30.4222 22.2707 30.6142 21.9707C30.8062 21.6707 31.0732 21.4397 31.4152 21.2777C31.7632 21.1157 32.1802 21.0347 32.6662 21.0347C33.1582 21.0347 33.5752 21.1157 33.9172 21.2777C34.2652 21.4397 34.5352 21.6707 34.7272 21.9707C34.9192 22.2707 35.0272 22.6337 35.0512 23.0597C35.0572 23.1737 35.0602 23.3087 35.0602 23.4647C35.0602 23.6147 35.0572 23.7497 35.0512 23.8697C35.0272 24.2897 34.9222 24.6527 34.7362 24.9587C34.5562 25.2587 34.2922 25.4897 33.9442 25.6517C33.6022 25.8137 33.1762 25.8947 32.6662 25.8947ZM32.6662 24.7967C32.9362 24.7967 33.1312 24.7157 33.2512 24.5537C33.3772 24.3917 33.4492 24.1487 33.4672 23.8247C33.4732 23.7347 33.4762 23.6147 33.4762 23.4647C33.4762 23.3147 33.4732 23.1947 33.4672 23.1047C33.4492 22.7867 33.3772 22.5467 33.2512 22.3847C33.1312 22.2167 32.9362 22.1327 32.6662 22.1327C32.4022 22.1327 32.2072 22.2167 32.0812 22.3847C31.9552 22.5467 31.8862 22.7867 31.8742 23.1047C31.8682 23.1947 31.8652 23.3147 31.8652 23.4647C31.8652 23.6147 31.8682 23.7347 31.8742 23.8247C31.8862 24.1487 31.9552 24.3917 32.0812 24.5537C32.2072 24.7157 32.4022 24.7967 32.6662 24.7967ZM35.9544 25.8047C35.8944 25.8047 35.8404 25.7837 35.7924 25.7417C35.7504 25.6937 35.7294 25.6397 35.7294 25.5797V24.7877C35.7294 24.6557 35.8014 24.5807 35.9454 24.5627C36.1194 24.5447 36.2514 24.4637 36.3414 24.3197C36.4314 24.1757 36.4944 23.9627 36.5304 23.6807C36.5664 23.3987 36.5844 23.0447 36.5844 22.6187V21.3497C36.5844 21.2837 36.6054 21.2297 36.6474 21.1877C36.6954 21.1457 36.7494 21.1247 36.8094 21.1247H40.3374C40.4034 21.1247 40.4574 21.1457 40.4994 21.1877C40.5414 21.2297 40.5624 21.2837 40.5624 21.3497V25.5797C40.5624 25.6457 40.5414 25.6997 40.4994 25.7417C40.4574 25.7837 40.4034 25.8047 40.3374 25.8047H39.2754C39.2154 25.8047 39.1614 25.7837 39.1134 25.7417C39.0714 25.6997 39.0504 25.6457 39.0504 25.5797V22.3037H38.0244V22.7807C38.0244 23.3567 37.9944 23.8397 37.9344 24.2297C37.8744 24.6197 37.7664 24.9287 37.6104 25.1567C37.4544 25.3847 37.2414 25.5497 36.9714 25.6517C36.7014 25.7537 36.3624 25.8047 35.9544 25.8047ZM43.1544 25.8947C42.8304 25.8947 42.5394 25.8347 42.2814 25.7147C42.0294 25.5887 41.8284 25.4207 41.6784 25.2107C41.5284 25.0007 41.4534 24.7637 41.4534 24.4997C41.4534 24.0737 41.6274 23.7377 41.9754 23.4917C42.3234 23.2397 42.7854 23.0687 43.3614 22.9787L44.4864 22.8077V22.6817C44.4864 22.4657 44.4414 22.3007 44.3514 22.1867C44.2614 22.0727 44.0964 22.0157 43.8564 22.0157C43.6884 22.0157 43.5504 22.0487 43.4424 22.1147C43.3404 22.1807 43.2594 22.2707 43.1994 22.3847C43.1454 22.4627 43.0704 22.5017 42.9744 22.5017H41.9664C41.9004 22.5017 41.8494 22.4837 41.8134 22.4477C41.7774 22.4057 41.7624 22.3577 41.7684 22.3037C41.7684 22.1957 41.8074 22.0727 41.8854 21.9347C41.9694 21.7907 42.0954 21.6497 42.2634 21.5117C42.4314 21.3737 42.6474 21.2597 42.9114 21.1697C43.1754 21.0797 43.4934 21.0347 43.8654 21.0347C44.2554 21.0347 44.5884 21.0797 44.8644 21.1697C45.1404 21.2597 45.3624 21.3857 45.5304 21.5477C45.7044 21.7097 45.8334 21.9017 45.9174 22.1237C46.0014 22.3397 46.0434 22.5797 46.0434 22.8437V25.5797C46.0434 25.6457 46.0194 25.6997 45.9714 25.7417C45.9294 25.7837 45.8784 25.8047 45.8184 25.8047H44.7744C44.7084 25.8047 44.6544 25.7837 44.6124 25.7417C44.5704 25.6997 44.5494 25.6457 44.5494 25.5797V25.2647C44.4714 25.3787 44.3664 25.4837 44.2344 25.5797C44.1024 25.6757 43.9464 25.7507 43.7664 25.8047C43.5924 25.8647 43.3884 25.8947 43.1544 25.8947ZM43.5774 24.8687C43.7514 24.8687 43.9074 24.8327 44.0454 24.7607C44.1894 24.6827 44.3004 24.5657 44.3784 24.4097C44.4624 24.2477 44.5044 24.0467 44.5044 23.8067V23.6807L43.7394 23.8157C43.4574 23.8637 43.2504 23.9387 43.1184 24.0407C42.9924 24.1367 42.9294 24.2507 42.9294 24.3827C42.9294 24.4847 42.9594 24.5717 43.0194 24.6437C43.0794 24.7157 43.1574 24.7727 43.2534 24.8147C43.3494 24.8507 43.4574 24.8687 43.5774 24.8687ZM49.335 25.8047C49.287 25.8047 49.245 25.7867 49.209 25.7507C49.173 25.7147 49.155 25.6697 49.155 25.6157V21.3047C49.155 21.2567 49.173 21.2147 49.209 21.1787C49.245 21.1427 49.287 21.1247 49.335 21.1247H50.37C50.478 21.1247 50.565 21.1787 50.631 21.2867L51.855 23.4737L53.088 21.2867C53.154 21.1787 53.241 21.1247 53.349 21.1247H54.384C54.438 21.1247 54.483 21.1427 54.519 21.1787C54.555 21.2147 54.573 21.2567 54.573 21.3047V25.6157C54.573 25.6697 54.555 25.7147 54.519 25.7507C54.483 25.7867 54.438 25.8047 54.384 25.8047H53.268C53.214 25.8047 53.169 25.7867 53.133 25.7507C53.097 25.7147 53.079 25.6697 53.079 25.6157V22.6817L53.52 22.7807L52.305 24.9047C52.275 24.9587 52.239 25.0067 52.197 25.0487C52.161 25.0847 52.107 25.1027 52.035 25.1027H51.675C51.615 25.1027 51.564 25.0847 51.522 25.0487C51.48 25.0127 51.441 24.9647 51.405 24.9047L50.226 22.8347L50.64 22.7447V25.6157C50.64 25.6697 50.622 25.7147 50.586 25.7507C50.55 25.7867 50.505 25.8047 50.451 25.8047H49.335ZM56.2077 27.5237C56.1417 27.5237 56.0847 27.4997 56.0367 27.4517C55.9947 27.4097 55.9737 27.3587 55.9737 27.2987V26.5697C55.9737 26.5037 55.9947 26.4497 56.0367 26.4077C56.0847 26.3657 56.1417 26.3447 56.2077 26.3447H56.5137C56.6277 26.3447 56.7207 26.3237 56.7927 26.2817C56.8647 26.2397 56.9277 26.1707 56.9817 26.0747C57.0417 25.9847 57.1047 25.8587 57.1707 25.6967L58.9707 21.3137C58.9887 21.2597 59.0187 21.2147 59.0607 21.1787C59.1027 21.1427 59.1627 21.1247 59.2407 21.1247H60.2037C60.2577 21.1247 60.3027 21.1457 60.3387 21.1877C60.3807 21.2237 60.4017 21.2657 60.4017 21.3137C60.4017 21.3257 60.3987 21.3437 60.3927 21.3677C60.3927 21.3857 60.3867 21.4067 60.3747 21.4307L58.6647 25.5527C58.5447 25.8467 58.4187 26.1137 58.2867 26.3537C58.1607 26.5937 58.0227 26.8007 57.8727 26.9747C57.7227 27.1547 57.5457 27.2897 57.3417 27.3797C57.1437 27.4757 56.9127 27.5237 56.6487 27.5237H56.2077ZM57.2697 25.7057L55.4247 21.4307C55.4067 21.3887 55.3977 21.3527 55.3977 21.3227C55.4097 21.2687 55.4337 21.2237 55.4697 21.1877C55.5057 21.1457 55.5537 21.1247 55.6137 21.1247H56.6217C56.6997 21.1247 56.7567 21.1457 56.7927 21.1877C56.8347 21.2237 56.8647 21.2657 56.8827 21.3137L58.1697 24.6077L57.2697 25.7057ZM63.1446 25.8947C62.7246 25.8947 62.3766 25.8497 62.1006 25.7597C61.8306 25.6697 61.6146 25.5527 61.4526 25.4087C61.2906 25.2647 61.1736 25.1147 61.1016 24.9587C61.0356 24.7967 60.9936 24.6527 60.9756 24.5267C60.9696 24.4787 60.9846 24.4397 61.0206 24.4097C61.0566 24.3797 61.0956 24.3647 61.1376 24.3647H62.1816C62.2476 24.3647 62.2956 24.3767 62.3256 24.4007C62.3616 24.4247 62.3916 24.4577 62.4156 24.4997C62.4696 24.6197 62.5566 24.7067 62.6766 24.7607C62.8026 24.8147 62.9646 24.8417 63.1626 24.8417C63.3006 24.8417 63.4206 24.8237 63.5226 24.7877C63.6306 24.7517 63.7116 24.6977 63.7656 24.6257C63.8196 24.5537 63.8466 24.4637 63.8466 24.3557C63.8466 24.2057 63.8016 24.0917 63.7116 24.0137C63.6216 23.9297 63.4656 23.8877 63.2436 23.8877H62.7396C62.6856 23.8877 62.6406 23.8697 62.6046 23.8337C62.5686 23.7917 62.5506 23.7437 62.5506 23.6897V23.1767C62.5506 23.1227 62.5686 23.0777 62.6046 23.0417C62.6406 22.9997 62.6856 22.9787 62.7396 22.9787H63.2256C63.4116 22.9787 63.5466 22.9457 63.6306 22.8797C63.7146 22.8137 63.7566 22.7117 63.7566 22.5737C63.7566 22.4897 63.7356 22.4117 63.6936 22.3397C63.6516 22.2677 63.5856 22.2107 63.4956 22.1687C63.4056 22.1207 63.2826 22.0967 63.1266 22.0967C62.9046 22.0967 62.7456 22.1297 62.6496 22.1957C62.5596 22.2557 62.4846 22.3517 62.4246 22.4837C62.4006 22.5257 62.3706 22.5587 62.3346 22.5827C62.3046 22.6067 62.2566 22.6187 62.1906 22.6187H61.1826C61.1346 22.6187 61.0956 22.6037 61.0656 22.5737C61.0356 22.5437 61.0206 22.5047 61.0206 22.4567C61.0386 22.3007 61.0836 22.1417 61.1556 21.9797C61.2336 21.8117 61.3536 21.6557 61.5156 21.5117C61.6776 21.3677 61.8906 21.2537 62.1546 21.1697C62.4186 21.0797 62.7486 21.0347 63.1446 21.0347C63.6546 21.0347 64.0596 21.0977 64.3596 21.2237C64.6656 21.3437 64.8846 21.5057 65.0166 21.7097C65.1486 21.9077 65.2146 22.1267 65.2146 22.3667C65.2146 22.5707 65.1726 22.7567 65.0886 22.9247C65.0046 23.0927 64.8546 23.2307 64.6386 23.3387C64.9086 23.4407 65.0946 23.5967 65.1966 23.8067C65.2986 24.0167 65.3496 24.2417 65.3496 24.4817C65.3496 24.7697 65.2596 25.0187 65.0796 25.2287C64.9056 25.4387 64.6536 25.6037 64.3236 25.7237C63.9936 25.8377 63.6006 25.8947 63.1446 25.8947ZM66.5162 25.8047C66.4502 25.8047 66.3962 25.7837 66.3542 25.7417C66.3122 25.6997 66.2912 25.6457 66.2912 25.5797V21.3497C66.2912 21.2837 66.3122 21.2297 66.3542 21.1877C66.3962 21.1457 66.4502 21.1247 66.5162 21.1247H67.5782C67.6442 21.1247 67.6982 21.1457 67.7402 21.1877C67.7882 21.2297 67.8122 21.2837 67.8122 21.3497V22.5647H68.6312C69.2372 22.5647 69.7052 22.7117 70.0352 23.0057C70.3652 23.2937 70.5302 23.6927 70.5302 24.2027C70.5302 24.7247 70.3562 25.1237 70.0082 25.3997C69.6662 25.6697 69.1892 25.8047 68.5772 25.8047H66.5162ZM67.7762 24.7697H68.4962C68.7302 24.7697 68.9012 24.7277 69.0092 24.6437C69.1172 24.5537 69.1712 24.4067 69.1712 24.2027C69.1712 23.9987 69.1172 23.8457 69.0092 23.7437C68.9072 23.6417 68.7362 23.5907 68.4962 23.5907H67.7762V24.7697ZM71.3042 25.8047C71.2442 25.8047 71.1902 25.7837 71.1422 25.7417C71.1002 25.6997 71.0792 25.6457 71.0792 25.5797V21.3497C71.0792 21.2837 71.1002 21.2297 71.1422 21.1877C71.1902 21.1457 71.2442 21.1247 71.3042 21.1247H72.3752C72.4352 21.1247 72.4862 21.1457 72.5282 21.1877C72.5762 21.2297 72.6002 21.2837 72.6002 21.3497V25.5797C72.6002 25.6457 72.5762 25.6997 72.5282 25.7417C72.4862 25.7837 72.4352 25.8047 72.3752 25.8047H71.3042ZM74.0154 25.8047C73.9494 25.8047 73.8954 25.7837 73.8534 25.7417C73.8114 25.6997 73.7904 25.6457 73.7904 25.5797V21.3497C73.7904 21.2837 73.8114 21.2297 73.8534 21.1877C73.8954 21.1457 73.9494 21.1247 74.0154 21.1247H75.0504C75.1164 21.1247 75.1704 21.1457 75.2124 21.1877C75.2544 21.2297 75.2754 21.2837 75.2754 21.3497V22.8437H75.7614L76.7424 21.2687C76.7604 21.2387 76.7904 21.2087 76.8324 21.1787C76.8744 21.1427 76.9284 21.1247 76.9944 21.1247H78.1464C78.2004 21.1247 78.2454 21.1427 78.2814 21.1787C78.3234 21.2087 78.3444 21.2507 78.3444 21.3047C78.3444 21.3227 78.3384 21.3437 78.3264 21.3677C78.3204 21.3917 78.3114 21.4127 78.2994 21.4307L77.0664 23.3927L78.5064 25.5077C78.5304 25.5437 78.5424 25.5827 78.5424 25.6247C78.5424 25.6787 78.5244 25.7237 78.4884 25.7597C78.4524 25.7897 78.4044 25.8047 78.3444 25.8047H77.0754C77.0094 25.8047 76.9554 25.7927 76.9134 25.7687C76.8774 25.7387 76.8444 25.7027 76.8144 25.6607L75.7434 24.0227H75.2754V25.5797C75.2754 25.6457 75.2544 25.6997 75.2124 25.7417C75.1704 25.7837 75.1164 25.8047 75.0504 25.8047H74.0154ZM79.5544 25.8047C79.4944 25.8047 79.4434 25.7837 79.4014 25.7417C79.3594 25.6997 79.3384 25.6487 79.3384 25.5887V21.3497C79.3384 21.2837 79.3594 21.2297 79.4014 21.1877C79.4434 21.1457 79.4974 21.1247 79.5634 21.1247H80.6254C80.6854 21.1247 80.7364 21.1457 80.7784 21.1877C80.8264 21.2297 80.8504 21.2837 80.8504 21.3497V24.6347L80.4454 24.4367L82.6684 21.2687C82.6984 21.2267 82.7344 21.1937 82.7764 21.1697C82.8184 21.1397 82.8664 21.1247 82.9204 21.1247H83.8834C83.9434 21.1247 83.9944 21.1457 84.0364 21.1877C84.0784 21.2297 84.0994 21.2807 84.0994 21.3407V25.5797C84.0994 25.6457 84.0784 25.6997 84.0364 25.7417C83.9944 25.7837 83.9404 25.8047 83.8744 25.8047H82.8124C82.7464 25.8047 82.6924 25.7837 82.6504 25.7417C82.6084 25.6997 82.5874 25.6457 82.5874 25.5797V22.3937L83.0014 22.4747L80.7604 25.6607C80.7364 25.7027 80.7034 25.7387 80.6614 25.7687C80.6194 25.7927 80.5684 25.8047 80.5084 25.8047H79.5544Z" fill="#2A2C32"/>
</g>
<defs>
<clipPath id="clip0_12469_18474">
<rect width="88" height="30" fill="white" transform="translate(0.8125)"/>
</clipPath>
</defs>
</svg>
