<svg width="86" height="14" viewBox="0 0 86 14" fill="none" xmlns="http://www.w3.org/2000/svg">
<g clipPath="url(#clip0_12469_18478)">
<g clipPath="url(#clip1_12469_18478)">
<g clipPath="url(#clip2_12469_18478)">
<path d="M66.0599 7.6632C67.4024 9.49098 68.7368 11.3026 70.0793 13.1223C69.9985 13.1223 69.9419 13.1384 69.8852 13.1384C69.4162 13.1384 68.9633 13.1223 68.5023 13.1384C68.3163 13.1384 68.2192 13.0818 68.106 12.9443C66.8605 11.2621 65.5989 9.57994 64.3534 7.88157C64.2402 7.74408 64.1431 7.68747 63.9571 7.68747C62.5175 7.70364 61.0699 7.68747 59.6303 7.68747H59.3796V13.1223H57.8672V0.813092H65.2996C66.0599 0.813092 66.812 0.869704 67.548 1.0638C69.5537 1.59758 70.2087 3.34448 69.8286 4.99433C69.5051 6.4339 68.5266 7.16987 67.1517 7.4691C66.812 7.56615 66.4561 7.60659 66.076 7.65512M59.3877 6.38538C59.4281 6.38538 59.4686 6.40155 59.5009 6.40155C61.3287 6.40155 63.1645 6.41773 64.9923 6.40155C65.7283 6.40155 66.4642 6.3045 67.1598 6.03762C67.8068 5.7869 68.2597 5.35827 68.3325 4.6223C68.3567 4.4282 68.3567 4.24219 68.3486 4.04C68.3324 3.30404 67.9847 2.79453 67.3053 2.49529C66.7796 2.26884 66.2297 2.18797 65.6797 2.18797C63.6255 2.17179 61.5632 2.18797 59.509 2.18797C59.4685 2.18797 59.4362 2.20414 59.3796 2.20414V6.39347H59.3958L59.3877 6.38538ZM11.9949 10.8901C11.8979 10.7931 11.8413 10.7365 11.7846 10.6637C8.80845 7.43675 5.83225 4.22602 2.86414 0.999104C2.76709 0.902054 2.67812 0.845442 2.54064 0.845442C1.9826 0.853529 1.41647 0.837354 0.866525 0.837354C0.793737 0.837354 0.729038 0.837354 0.65625 0.853529V13.1223H2.05539V2.26884C2.05539 2.26884 2.07965 2.24458 2.112 2.24458C2.13626 2.28502 2.16861 2.34163 2.20905 2.38207C3.96404 4.32307 5.7352 6.24789 7.49019 8.1808C8.94594 9.78213 10.4017 11.3754 11.8655 12.9767C11.9221 13.0333 12.003 13.1142 12.092 13.1142C12.5287 13.1304 12.9654 13.1142 13.4102 13.1142V0.837354H11.9949V10.882V10.8901ZM78.4903 0.530029C79.4689 0.546204 80.7144 0.740304 81.9033 1.23364C83.909 2.08283 85.0898 3.57902 85.4375 5.7222C85.6073 6.7574 85.6478 7.80069 85.3647 8.81972C84.9442 10.421 83.9332 11.5937 82.5341 12.4106C81.604 12.9443 80.585 13.2193 79.5175 13.3568C78.1911 13.5428 76.889 13.4943 75.595 13.1061C73.9128 12.5723 72.5541 11.618 71.6726 10.0652C71.066 8.98955 70.88 7.83304 70.9528 6.61183C71.0094 5.7222 71.1792 4.84067 71.5594 4.02383C72.1093 2.83497 73.0475 2.04239 74.1797 1.43583C75.4252 0.772654 76.7677 0.530029 78.4823 0.530029M78.1668 1.75933C78.1668 1.75933 78.1668 1.71889 78.1507 1.70272C77.5603 1.79977 76.9456 1.85638 76.3552 2.01004C75.1421 2.30928 74.0665 2.89967 73.3871 3.95913C72.2144 5.77073 72.174 7.69555 73.1041 9.62038C73.6378 10.7203 74.6164 11.3592 75.7487 11.7312C77.5037 12.2973 79.2748 12.2569 80.9975 11.6503C82.2672 11.1974 83.173 10.3321 83.6744 9.06234C84.0546 8.05949 84.184 7.00003 83.9979 5.93248C83.6987 4.21793 82.7686 2.98863 81.1511 2.32545C80.2049 1.92917 79.202 1.79168 78.1668 1.75933ZM44.3287 0.837354H51.5428C52.3515 0.837354 53.1684 0.877792 53.9448 1.10424C55.6998 1.61375 56.3468 2.68939 56.3468 4.40394C56.3468 6.19937 55.1336 7.29118 53.5728 7.61468C52.9258 7.75217 52.2302 7.82495 51.5671 7.84113C49.7555 7.86539 47.9439 7.8573 46.1323 7.8573H45.8492V13.1384H44.3207V0.837354H44.3287ZM45.8735 2.13135V6.51478C45.9462 6.51478 46.0109 6.53095 46.0837 6.53095C47.8387 6.53095 49.5775 6.54713 51.3325 6.51478C51.9229 6.4986 52.5376 6.45817 53.1037 6.32877C54.2359 6.07805 54.8587 5.40679 54.8263 4.25028C54.8021 3.23125 54.4139 2.66513 53.4434 2.39824C52.9096 2.24458 52.3273 2.15562 51.7612 2.14753C49.8687 2.12327 47.9681 2.13135 46.0756 2.13135H45.8815M14.3565 13.1546C14.5667 12.7422 14.7689 12.362 14.963 11.9819C16.8555 8.33447 18.7561 4.67892 20.6485 1.03145C20.7213 0.902054 20.786 0.861617 20.9478 0.861617C21.4411 0.877792 21.9345 0.877792 22.4359 0.861617C22.5653 0.861617 22.63 0.902054 22.6866 0.999104C24.7651 5.00242 26.8436 8.99764 28.9382 13.001C28.9544 13.0414 28.9787 13.0818 29.011 13.1546H28.2589C28.0082 13.1546 27.7494 13.1384 27.4987 13.1546C27.3612 13.1546 27.3046 13.1142 27.2479 13.001C26.7789 12.0709 26.2855 11.1327 25.8165 10.1865C25.7356 10.0328 25.6466 9.97623 25.4606 9.97623H17.8907C17.7532 9.97623 17.6643 10.0167 17.5915 10.1461C17.1143 11.0923 16.6129 12.0305 16.1357 12.9605C16.0629 13.098 15.9821 13.1546 15.8122 13.1546C15.3351 13.1384 14.866 13.1546 14.3565 13.1546ZM21.7161 2.02622C20.5839 4.2341 19.4839 6.42582 18.3598 8.60944H24.9834C23.8835 6.41773 22.8079 4.25028 21.7161 2.02622ZM43.0509 13.1546V11.8525H34.6884V0.885879H33.1761V13.1708H43.0509V13.1546ZM30.119 13.1384H31.6071V0.853529H30.119V13.1384Z" fill="#2A2C32"/>
</g>
</g>
</g>
<defs>
<clipPath id="clip0_12469_18478">
<rect width="85" height="12.94" fill="white" transform="translate(0.617188 0.530029)"/>
</clipPath>
<clipPath id="clip1_12469_18478">
<rect width="85" height="12.94" fill="white" transform="translate(0.617188 0.530029)"/>
</clipPath>
<clipPath id="clip2_12469_18478">
<rect width="84.9187" height="12.94" fill="white" transform="translate(0.65625 0.530029)"/>
</clipPath>
</defs>
</svg>
