<svg width="86" height="28" viewBox="0 0 86 28" fill="none" xmlns="http://www.w3.org/2000/svg">
<g clipPath="url(#clip0_12469_18548)">
<circle cx="5.23438" cy="9.30408" r="4" fill="#2A2C32"/>
<circle cx="14.2344" cy="9.30408" r="4" fill="#2A2C32"/>
<circle cx="5.23438" cy="18.3041" r="4" fill="#2A2C32"/>
<circle cx="14.2344" cy="18.3041" r="4" fill="#2A2C32"/>
<path d="M23.0744 12.8041V6.54008H24.1304V9.13208H27.3944V6.54008H28.4504V12.8041H27.3944V10.0681H24.1304V12.8041H23.0744ZM32.9248 12.9241C32.4528 12.9241 32.0208 12.8401 31.6288 12.6721C31.2448 12.4961 30.9088 12.2601 30.6208 11.9641C30.3408 11.6601 30.1208 11.3121 29.9608 10.9201C29.8088 10.5281 29.7328 10.1121 29.7328 9.67208C29.7328 9.08008 29.8688 8.54008 30.1408 8.05208C30.4128 7.56408 30.7888 7.17208 31.2688 6.87608C31.7568 6.58008 32.3128 6.43208 32.9368 6.43208C33.5688 6.43208 34.1168 6.58408 34.5808 6.88808C35.0528 7.18408 35.4168 7.57608 35.6728 8.06408C35.9368 8.54408 36.0688 9.06408 36.0688 9.62408C36.0688 9.70408 36.0648 9.78408 36.0568 9.86408C36.0568 9.93608 36.0528 9.99208 36.0448 10.0321H30.8488C30.8808 10.4401 30.9928 10.8041 31.1848 11.1241C31.3848 11.4361 31.6408 11.6841 31.9528 11.8681C32.2648 12.0441 32.6008 12.1321 32.9608 12.1321C33.3448 12.1321 33.7048 12.0361 34.0408 11.8441C34.3848 11.6521 34.6208 11.4001 34.7488 11.0881L35.6608 11.3401C35.5248 11.6441 35.3208 11.9161 35.0488 12.1561C34.7848 12.3961 34.4688 12.5841 34.1008 12.7201C33.7408 12.8561 33.3488 12.9241 32.9248 12.9241ZM30.8128 9.30008H35.0848C35.0528 8.89208 34.9368 8.53208 34.7368 8.22008C34.5368 7.90808 34.2808 7.66408 33.9688 7.48808C33.6568 7.31208 33.3128 7.22408 32.9368 7.22408C32.5688 7.22408 32.2288 7.31208 31.9168 7.48808C31.6048 7.66408 31.3488 7.90808 31.1488 8.22008C30.9568 8.53208 30.8448 8.89208 30.8128 9.30008ZM40.2658 12.8041V6.54008H41.3218V11.8801H43.7938V6.54008H44.8618V11.8801H47.3218V6.54008H48.3778V12.8041H40.2658ZM50.0744 12.8041V6.54008H51.1304V9.12008H51.8264L53.7944 6.54008H54.9944L52.6544 9.57608L55.2704 12.8041H54.0464L51.8264 10.0921H51.1304V12.8041H50.0744ZM58.7169 12.9241C58.2449 12.9241 57.8169 12.8401 57.4329 12.6721C57.0489 12.4961 56.7169 12.2601 56.4369 11.9641C56.1569 11.6601 55.9409 11.3121 55.7889 10.9201C55.6369 10.5281 55.5609 10.1161 55.5609 9.68408C55.5609 9.24408 55.6369 8.82808 55.7889 8.43608C55.9409 8.04408 56.1569 7.70008 56.4369 7.40408C56.7169 7.10008 57.0489 6.86408 57.4329 6.69608C57.8249 6.52008 58.2529 6.43208 58.7169 6.43208C59.1889 6.43208 59.6169 6.52008 60.0009 6.69608C60.3849 6.86408 60.7169 7.10008 60.9969 7.40408C61.2849 7.70008 61.5049 8.04408 61.6569 8.43608C61.8089 8.82808 61.8849 9.24408 61.8849 9.68408C61.8849 10.1161 61.8089 10.5281 61.6569 10.9201C61.5049 11.3121 61.2889 11.6601 61.0089 11.9641C60.7289 12.2601 60.3929 12.4961 60.0009 12.6721C59.6169 12.8401 59.1889 12.9241 58.7169 12.9241ZM56.6409 9.69608C56.6409 10.1281 56.7329 10.5201 56.9169 10.8721C57.1089 11.2241 57.3609 11.5041 57.6729 11.7121C57.9849 11.9121 58.3329 12.0121 58.7169 12.0121C59.1009 12.0121 59.4489 11.9081 59.7609 11.7001C60.0809 11.4921 60.3329 11.2121 60.5169 10.8601C60.7089 10.5001 60.8049 10.1041 60.8049 9.67208C60.8049 9.24008 60.7089 8.84808 60.5169 8.49608C60.3329 8.14408 60.0809 7.86408 59.7609 7.65608C59.4489 7.44808 59.1009 7.34408 58.7169 7.34408C58.3329 7.34408 57.9849 7.45208 57.6729 7.66808C57.3609 7.87608 57.1089 8.15608 56.9169 8.50808C56.7329 8.86008 56.6409 9.25608 56.6409 9.69608ZM62.6125 12.8521V11.9041C62.8205 11.9041 63.0045 11.8521 63.1645 11.7481C63.3325 11.6361 63.4805 11.4521 63.6085 11.1961C63.7365 10.9321 63.8365 10.5721 63.9085 10.1161C63.9885 9.65208 64.0405 9.06408 64.0645 8.35208L64.1365 6.54008H68.3965V12.8041H67.3405V7.47608H65.0725L65.0485 8.44808C65.0165 9.30408 64.9445 10.0161 64.8325 10.5841C64.7205 11.1521 64.5645 11.6001 64.3645 11.9281C64.1645 12.2561 63.9165 12.4921 63.6205 12.6361C63.3325 12.7801 62.9965 12.8521 62.6125 12.8521ZM69.61 10.9921C69.61 10.5921 69.722 10.2481 69.946 9.96008C70.178 9.66408 70.494 9.43608 70.894 9.27608C71.294 9.11608 71.758 9.03608 72.286 9.03608C72.566 9.03608 72.862 9.06008 73.174 9.10808C73.486 9.14808 73.762 9.21208 74.002 9.30008V8.84408C74.002 8.36408 73.858 7.98808 73.57 7.71608C73.282 7.43608 72.874 7.29608 72.346 7.29608C72.002 7.29608 71.67 7.36008 71.35 7.48808C71.038 7.60808 70.706 7.78408 70.354 8.01608L69.97 7.27208C70.378 6.99208 70.786 6.78408 71.194 6.64808C71.602 6.50408 72.026 6.43208 72.466 6.43208C73.266 6.43208 73.898 6.65608 74.362 7.10408C74.826 7.54408 75.058 8.16008 75.058 8.95208V11.6041C75.058 11.7321 75.082 11.8281 75.13 11.8921C75.186 11.9481 75.274 11.9801 75.394 11.9881V12.8041C75.29 12.8201 75.198 12.8321 75.118 12.8401C75.046 12.8481 74.986 12.8521 74.938 12.8521C74.69 12.8521 74.502 12.7841 74.374 12.6481C74.254 12.5121 74.186 12.3681 74.17 12.2161L74.146 11.8201C73.874 12.1721 73.518 12.4441 73.078 12.6361C72.638 12.8281 72.202 12.9241 71.77 12.9241C71.354 12.9241 70.982 12.8401 70.654 12.6721C70.326 12.4961 70.07 12.2641 69.886 11.9761C69.702 11.6801 69.61 11.3521 69.61 10.9921ZM73.69 11.4361C73.786 11.3241 73.862 11.2121 73.918 11.1001C73.974 10.9801 74.002 10.8801 74.002 10.8001V10.0201C73.754 9.92408 73.494 9.85208 73.222 9.80408C72.95 9.74808 72.682 9.72008 72.418 9.72008C71.882 9.72008 71.446 9.82808 71.11 10.0441C70.782 10.2521 70.618 10.5401 70.618 10.9081C70.618 11.1081 70.67 11.3041 70.774 11.4961C70.886 11.6801 71.046 11.8321 71.254 11.9521C71.47 12.0721 71.734 12.1321 72.046 12.1321C72.374 12.1321 72.686 12.0681 72.982 11.9401C73.278 11.8041 73.514 11.6361 73.69 11.4361ZM26.0384 22.9241C25.0064 22.9241 24.2264 22.6121 23.6984 21.9881C23.1704 21.3641 22.9064 20.4841 22.9064 19.3481C22.9064 18.5721 22.9704 17.9201 23.0984 17.3921C23.2264 16.8561 23.4184 16.4161 23.6744 16.0721C23.9304 15.7201 24.2464 15.4361 24.6224 15.2201C24.9984 14.9961 25.4304 14.8121 25.9184 14.6681L28.5704 13.8641L28.6304 14.7761L26.0504 15.5561C25.6104 15.7001 25.2424 15.8841 24.9464 16.1081C24.6504 16.3321 24.4184 16.6201 24.2504 16.9721C24.0824 17.3241 23.9704 17.7761 23.9144 18.3281C24.1224 17.9041 24.4344 17.5761 24.8504 17.3441C25.2664 17.1041 25.7504 16.9841 26.3024 16.9841C26.8944 16.9841 27.4024 17.1081 27.8264 17.3561C28.2584 17.5961 28.5864 17.9361 28.8104 18.3761C29.0424 18.8081 29.1584 19.3081 29.1584 19.8761C29.1584 20.4841 29.0384 21.0161 28.7984 21.4721C28.5584 21.9281 28.2064 22.2841 27.7424 22.5401C27.2784 22.7961 26.7104 22.9241 26.0384 22.9241ZM26.0384 22.0121C26.6864 22.0121 27.1864 21.8241 27.5384 21.4481C27.8984 21.0641 28.0784 20.5561 28.0784 19.9241C28.0784 19.3081 27.9024 18.8081 27.5504 18.4241C27.1984 18.0401 26.6944 17.8481 26.0384 17.8481C25.6544 17.8481 25.3064 17.9281 24.9944 18.0881C24.6904 18.2481 24.4464 18.4841 24.2624 18.7961C24.0864 19.1001 23.9984 19.4761 23.9984 19.9241C23.9984 20.3241 24.0744 20.6841 24.2264 21.0041C24.3864 21.3161 24.6184 21.5641 24.9224 21.7481C25.2264 21.9241 25.5984 22.0121 26.0384 22.0121ZM29.9538 20.9921C29.9538 20.5921 30.0658 20.2481 30.2898 19.9601C30.5218 19.6641 30.8378 19.4361 31.2378 19.2761C31.6378 19.1161 32.1018 19.0361 32.6298 19.0361C32.9098 19.0361 33.2058 19.0601 33.5178 19.1081C33.8298 19.1481 34.1058 19.2121 34.3458 19.3001V18.8441C34.3458 18.3641 34.2018 17.9881 33.9138 17.7161C33.6258 17.4361 33.2178 17.2961 32.6898 17.2961C32.3458 17.2961 32.0138 17.3601 31.6938 17.4881C31.3818 17.6081 31.0498 17.7841 30.6978 18.0161L30.3138 17.2721C30.7218 16.9921 31.1298 16.7841 31.5378 16.6481C31.9458 16.5041 32.3698 16.4321 32.8098 16.4321C33.6098 16.4321 34.2418 16.6561 34.7058 17.1041C35.1698 17.5441 35.4018 18.1601 35.4018 18.9521V21.6041C35.4018 21.7321 35.4258 21.8281 35.4738 21.8921C35.5298 21.9481 35.6178 21.9801 35.7378 21.9881V22.8041C35.6338 22.8201 35.5418 22.8321 35.4618 22.8401C35.3898 22.8481 35.3298 22.8521 35.2818 22.8521C35.0338 22.8521 34.8458 22.7841 34.7178 22.6481C34.5978 22.5121 34.5298 22.3681 34.5138 22.2161L34.4898 21.8201C34.2178 22.1721 33.8618 22.4441 33.4218 22.6361C32.9818 22.8281 32.5458 22.9241 32.1138 22.9241C31.6978 22.9241 31.3258 22.8401 30.9978 22.6721C30.6698 22.4961 30.4138 22.2641 30.2298 21.9761C30.0458 21.6801 29.9538 21.3521 29.9538 20.9921ZM34.0338 21.4361C34.1298 21.3241 34.2058 21.2121 34.2618 21.1001C34.3178 20.9801 34.3458 20.8801 34.3458 20.8001V20.0201C34.0978 19.9241 33.8378 19.8521 33.5658 19.8041C33.2938 19.7481 33.0258 19.7201 32.7617 19.7201C32.2258 19.7201 31.7898 19.8281 31.4538 20.0441C31.1258 20.2521 30.9618 20.5401 30.9618 20.9081C30.9618 21.1081 31.0138 21.3041 31.1178 21.4961C31.2298 21.6801 31.3898 21.8321 31.5978 21.9521C31.8138 22.0721 32.0778 22.1321 32.3898 22.1321C32.7178 22.1321 33.0298 22.0681 33.3258 21.9401C33.6218 21.8041 33.8578 21.6361 34.0338 21.4361ZM40.4623 22.9241C39.9503 22.9241 39.4943 22.7961 39.0943 22.5401C38.6943 22.2841 38.3783 21.9601 38.1463 21.5681V25.3601H37.0903V16.5401H38.0263V17.7161C38.2743 17.3321 38.5983 17.0241 38.9983 16.7921C39.3983 16.5521 39.8343 16.4321 40.3063 16.4321C40.7383 16.4321 41.1343 16.5201 41.4943 16.6961C41.8543 16.8721 42.1663 17.1121 42.4303 17.4161C42.6943 17.7201 42.8983 18.0681 43.0423 18.4601C43.1943 18.8441 43.2703 19.2481 43.2703 19.6721C43.2703 20.2641 43.1503 20.8081 42.9103 21.3041C42.6783 21.8001 42.3503 22.1961 41.9263 22.4921C41.5023 22.7801 41.0143 22.9241 40.4623 22.9241ZM40.1383 22.0121C40.4503 22.0121 40.7303 21.9481 40.9783 21.8201C41.2343 21.6841 41.4503 21.5081 41.6263 21.2921C41.8103 21.0681 41.9503 20.8161 42.0463 20.5361C42.1423 20.2561 42.1903 19.9681 42.1903 19.6721C42.1903 19.3601 42.1343 19.0641 42.0223 18.7841C41.9183 18.5041 41.7663 18.2561 41.5663 18.0401C41.3743 17.8241 41.1463 17.6561 40.8823 17.5361C40.6263 17.4081 40.3463 17.3441 40.0423 17.3441C39.8503 17.3441 39.6503 17.3801 39.4423 17.4521C39.2423 17.5241 39.0503 17.6281 38.8663 17.7641C38.6823 17.8921 38.5263 18.0401 38.3983 18.2081C38.2703 18.3761 38.1863 18.5561 38.1463 18.7481V20.5361C38.2663 20.8081 38.4263 21.0561 38.6263 21.2801C38.8263 21.5041 39.0583 21.6841 39.3223 21.8201C39.5863 21.9481 39.8583 22.0121 40.1383 22.0121ZM44.0748 20.9921C44.0748 20.5921 44.1868 20.2481 44.4108 19.9601C44.6428 19.6641 44.9588 19.4361 45.3588 19.2761C45.7588 19.1161 46.2228 19.0361 46.7508 19.0361C47.0308 19.0361 47.3268 19.0601 47.6388 19.1081C47.9508 19.1481 48.2268 19.2121 48.4668 19.3001V18.8441C48.4668 18.3641 48.3228 17.9881 48.0348 17.7161C47.7468 17.4361 47.3388 17.2961 46.8108 17.2961C46.4668 17.2961 46.1348 17.3601 45.8148 17.4881C45.5028 17.6081 45.1708 17.7841 44.8188 18.0161L44.4348 17.2721C44.8428 16.9921 45.2508 16.7841 45.6588 16.6481C46.0668 16.5041 46.4908 16.4321 46.9308 16.4321C47.7308 16.4321 48.3628 16.6561 48.8268 17.1041C49.2908 17.5441 49.5228 18.1601 49.5228 18.9521V21.6041C49.5228 21.7321 49.5468 21.8281 49.5948 21.8921C49.6508 21.9481 49.7388 21.9801 49.8588 21.9881V22.8041C49.7548 22.8201 49.6628 22.8321 49.5828 22.8401C49.5108 22.8481 49.4508 22.8521 49.4028 22.8521C49.1548 22.8521 48.9668 22.7841 48.8388 22.6481C48.7188 22.5121 48.6508 22.3681 48.6348 22.2161L48.6108 21.8201C48.3388 22.1721 47.9828 22.4441 47.5428 22.6361C47.1028 22.8281 46.6668 22.9241 46.2348 22.9241C45.8188 22.9241 45.4468 22.8401 45.1188 22.6721C44.7908 22.4961 44.5348 22.2641 44.3508 21.9761C44.1668 21.6801 44.0748 21.3521 44.0748 20.9921ZM48.1548 21.4361C48.2508 21.3241 48.3268 21.2121 48.3828 21.1001C48.4388 20.9801 48.4668 20.8801 48.4668 20.8001V20.0201C48.2188 19.9241 47.9588 19.8521 47.6868 19.8041C47.4148 19.7481 47.1468 19.7201 46.8828 19.7201C46.3468 19.7201 45.9108 19.8281 45.5748 20.0441C45.2468 20.2521 45.0828 20.5401 45.0828 20.9081C45.0828 21.1081 45.1348 21.3041 45.2388 21.4961C45.3508 21.6801 45.5108 21.8321 45.7188 21.9521C45.9348 22.0721 46.1988 22.1321 46.5108 22.1321C46.8388 22.1321 47.1508 22.0681 47.4468 21.9401C47.7428 21.8041 47.9788 21.6361 48.1548 21.4361ZM54.1634 22.9241C53.1314 22.9241 52.3514 22.6121 51.8234 21.9881C51.2954 21.3641 51.0314 20.4841 51.0314 19.3481C51.0314 18.5721 51.0954 17.9201 51.2234 17.3921C51.3514 16.8561 51.5434 16.4161 51.7994 16.0721C52.0554 15.7201 52.3714 15.4361 52.7474 15.2201C53.1234 14.9961 53.5554 14.8121 54.0434 14.6681L56.6954 13.8641L56.7554 14.7761L54.1754 15.5561C53.7354 15.7001 53.3674 15.8841 53.0714 16.1081C52.7754 16.3321 52.5434 16.6201 52.3754 16.9721C52.2074 17.3241 52.0954 17.7761 52.0394 18.3281C52.2474 17.9041 52.5594 17.5761 52.9754 17.3441C53.3914 17.1041 53.8754 16.9841 54.4274 16.9841C55.0194 16.9841 55.5274 17.1081 55.9514 17.3561C56.3834 17.5961 56.7114 17.9361 56.9354 18.3761C57.1674 18.8081 57.2834 19.3081 57.2834 19.8761C57.2834 20.4841 57.1634 21.0161 56.9234 21.4721C56.6834 21.9281 56.3314 22.2841 55.8674 22.5401C55.4034 22.7961 54.8354 22.9241 54.1634 22.9241ZM54.1634 22.0121C54.8114 22.0121 55.3114 21.8241 55.6634 21.4481C56.0234 21.0641 56.2034 20.5561 56.2034 19.9241C56.2034 19.3081 56.0274 18.8081 55.6754 18.4241C55.3234 18.0401 54.8194 17.8481 54.1634 17.8481C53.7794 17.8481 53.4314 17.9281 53.1194 18.0881C52.8154 18.2481 52.5714 18.4841 52.3874 18.7961C52.2114 19.1001 52.1234 19.4761 52.1234 19.9241C52.1234 20.3241 52.1994 20.6841 52.3514 21.0041C52.5114 21.3161 52.7434 21.5641 53.0474 21.7481C53.3514 21.9241 53.7234 22.0121 54.1634 22.0121ZM58.0788 20.9921C58.0788 20.5921 58.1908 20.2481 58.4148 19.9601C58.6468 19.6641 58.9628 19.4361 59.3628 19.2761C59.7628 19.1161 60.2268 19.0361 60.7548 19.0361C61.0348 19.0361 61.3308 19.0601 61.6428 19.1081C61.9548 19.1481 62.2308 19.2121 62.4708 19.3001V18.8441C62.4708 18.3641 62.3268 17.9881 62.0388 17.7161C61.7508 17.4361 61.3428 17.2961 60.8148 17.2961C60.4708 17.2961 60.1388 17.3601 59.8188 17.4881C59.5068 17.6081 59.1748 17.7841 58.8228 18.0161L58.4388 17.2721C58.8468 16.9921 59.2548 16.7841 59.6628 16.6481C60.0708 16.5041 60.4948 16.4321 60.9348 16.4321C61.7348 16.4321 62.3668 16.6561 62.8308 17.1041C63.2948 17.5441 63.5268 18.1601 63.5268 18.9521V21.6041C63.5268 21.7321 63.5508 21.8281 63.5988 21.8921C63.6548 21.9481 63.7428 21.9801 63.8628 21.9881V22.8041C63.7588 22.8201 63.6668 22.8321 63.5868 22.8401C63.5148 22.8481 63.4548 22.8521 63.4068 22.8521C63.1588 22.8521 62.9708 22.7841 62.8428 22.6481C62.7228 22.5121 62.6548 22.3681 62.6388 22.2161L62.6148 21.8201C62.3428 22.1721 61.9868 22.4441 61.5468 22.6361C61.1068 22.8281 60.6708 22.9241 60.2388 22.9241C59.8228 22.9241 59.4508 22.8401 59.1228 22.6721C58.7948 22.4961 58.5388 22.2641 58.3548 21.9761C58.1708 21.6801 58.0788 21.3521 58.0788 20.9921ZM62.1588 21.4361C62.2548 21.3241 62.3308 21.2121 62.3868 21.1001C62.4428 20.9801 62.4708 20.8801 62.4708 20.8001V20.0201C62.2228 19.9241 61.9628 19.8521 61.6908 19.8041C61.4188 19.7481 61.1508 19.7201 60.8867 19.7201C60.3508 19.7201 59.9148 19.8281 59.5788 20.0441C59.2508 20.2521 59.0868 20.5401 59.0868 20.9081C59.0868 21.1081 59.1388 21.3041 59.2428 21.4961C59.3548 21.6801 59.5148 21.8321 59.7228 21.9521C59.9388 22.0721 60.2028 22.1321 60.5148 22.1321C60.8428 22.1321 61.1548 22.0681 61.4508 21.9401C61.7468 21.8041 61.9828 21.6361 62.1588 21.4361ZM65.2033 22.8041V16.5401H66.2593V19.1321H69.5233V16.5401H70.5793V22.8041H69.5233V20.0681H66.2593V22.8041H65.2033ZM75.0177 22.9241C74.5457 22.9241 74.1177 22.8401 73.7337 22.6721C73.3497 22.4961 73.0177 22.2601 72.7377 21.9641C72.4577 21.6601 72.2417 21.3121 72.0897 20.9201C71.9377 20.5281 71.8617 20.1161 71.8617 19.6841C71.8617 19.2441 71.9377 18.8281 72.0897 18.4361C72.2417 18.0441 72.4577 17.7001 72.7377 17.4041C73.0177 17.1001 73.3497 16.8641 73.7337 16.6961C74.1257 16.5201 74.5537 16.4321 75.0177 16.4321C75.4897 16.4321 75.9177 16.5201 76.3017 16.6961C76.6857 16.8641 77.0177 17.1001 77.2977 17.4041C77.5857 17.7001 77.8057 18.0441 77.9577 18.4361C78.1097 18.8281 78.1857 19.2441 78.1857 19.6841C78.1857 20.1161 78.1097 20.5281 77.9577 20.9201C77.8057 21.3121 77.5897 21.6601 77.3097 21.9641C77.0297 22.2601 76.6937 22.4961 76.3017 22.6721C75.9177 22.8401 75.4897 22.9241 75.0177 22.9241ZM72.9417 19.6961C72.9417 20.1281 73.0337 20.5201 73.2177 20.8721C73.4097 21.2241 73.6617 21.5041 73.9737 21.7121C74.2857 21.9121 74.6337 22.0121 75.0177 22.0121C75.4017 22.0121 75.7497 21.9081 76.0617 21.7001C76.3817 21.4921 76.6337 21.2121 76.8177 20.8601C77.0097 20.5001 77.1057 20.1041 77.1057 19.6721C77.1057 19.2401 77.0097 18.8481 76.8177 18.4961C76.6337 18.1441 76.3817 17.8641 76.0617 17.6561C75.7497 17.4481 75.4017 17.3441 75.0177 17.3441C74.6337 17.3441 74.2857 17.4521 73.9737 17.6681C73.6617 17.8761 73.4097 18.1561 73.2177 18.5081C73.0337 18.8601 72.9417 19.2561 72.9417 19.6961ZM79.4533 22.8041V16.5401H82.6933C83.0693 16.5401 83.3813 16.6161 83.6293 16.7681C83.8773 16.9121 84.0613 17.1001 84.1813 17.3321C84.3093 17.5641 84.3733 17.8121 84.3733 18.0761C84.3733 18.4121 84.2933 18.7161 84.1333 18.9881C83.9733 19.2521 83.7413 19.4521 83.4373 19.5881C83.7973 19.6921 84.0893 19.8801 84.3133 20.1521C84.5373 20.4161 84.6493 20.7441 84.6493 21.1361C84.6493 21.4881 84.5653 21.7881 84.3973 22.0361C84.2293 22.2841 83.9933 22.4761 83.6893 22.6121C83.3853 22.7401 83.0333 22.8041 82.6333 22.8041H79.4533ZM80.4613 22.0601H82.6093C82.8013 22.0601 82.9733 22.0121 83.1253 21.9161C83.2853 21.8201 83.4093 21.6921 83.4973 21.5321C83.5853 21.3721 83.6293 21.2041 83.6293 21.0281C83.6293 20.8361 83.5853 20.6641 83.4973 20.5121C83.4173 20.3521 83.3013 20.2281 83.1493 20.1401C83.0053 20.0441 82.8373 19.9961 82.6453 19.9961H80.4613V22.0601ZM80.4613 19.3001H82.4173C82.6093 19.3001 82.7773 19.2521 82.9213 19.1561C83.0653 19.0521 83.1773 18.9201 83.2573 18.7601C83.3373 18.6001 83.3773 18.4321 83.3773 18.2561C83.3773 17.9921 83.2893 17.7641 83.1133 17.5721C82.9453 17.3801 82.7253 17.2841 82.4533 17.2841H80.4613V19.3001Z" fill="#2A2C32"/>
</g>
<defs>
<clipPath id="clip0_12469_18548">
<rect width="85" height="26.47" fill="white" transform="translate(0.234375 0.765015)"/>
</clipPath>
</defs>
</svg>
