<svg width="163" height="20" viewBox="0 0 163 20" fill="none" xmlns="http://www.w3.org/2000/svg">
<path d="M0 2.73081C0 2.61034 0.0720644 2.50156 0.182995 2.45457L5.5611 0.176626C5.75891 0.09284 5.9781 0.238041 5.9781 0.452869V17.8654C5.9781 17.9957 5.89389 18.1111 5.76984 18.151C3.69427 18.8181 2.42123 19.2221 0.392233 19.8739C0.198553 19.9361 0 19.7918 0 19.5884V2.73081Z" fill="white"/>
<path d="M7.51095 2.73081C7.51095 2.61034 7.58301 2.50156 7.69394 2.45457L13.0719 0.176702C13.2697 0.0928955 13.489 0.238183 13.4889 0.453061L13.4821 17.8131C13.482 17.9426 13.399 18.0574 13.2761 18.0979L7.90494 19.87C7.71085 19.934 7.51095 19.7895 7.51095 19.5851V2.73081Z" fill="white"/>
<path d="M15.0219 2.73081C15.0219 2.61034 15.094 2.50156 15.2049 2.45457L20.583 0.176626C20.7808 0.09284 21 0.238041 21 0.452869V12.2323C21 12.485 20.7065 12.6245 20.5105 12.4648L18.4138 10.7567C18.2847 10.6516 18.0947 10.6717 17.9904 10.8015L15.5558 13.8322C15.3784 14.053 15.0219 13.9276 15.0219 13.6443V2.73081Z" fill="white"/>
<path d="M27 3.62008V0.0360765H48.42V3.62008H39.908V19.6361H35.54V3.62008H27Z" fill="white"/>
<path d="M66.6942 13.0841V13.5321H51.3502C51.8729 15.9214 53.8889 17.1161 57.3982 17.1161C59.7689 17.1161 61.4116 16.5654 62.3262 15.4641L66.3862 15.6321C65.8449 17.0134 64.8089 18.0867 63.2782 18.8521C61.7476 19.5987 59.7876 19.9721 57.3982 19.9721C54.2249 19.9721 51.7142 19.3374 49.8662 18.0681C48.0369 16.7987 47.1222 14.8761 47.1222 12.3001C47.1222 9.76141 48.0276 7.84808 49.8382 6.56008C51.6676 5.27208 54.1036 4.62808 57.1462 4.62808C63.5116 4.62808 66.6942 7.44674 66.6942 13.0841ZM57.1462 7.48408C53.8236 7.48408 51.9009 8.65074 51.3782 10.9841H62.5782C62.4849 9.90141 61.9622 9.05208 61.0102 8.43608C60.0769 7.80141 58.7889 7.48408 57.1462 7.48408Z" fill="white"/>
<path d="M69.6592 0.0280762H71.5H73.8312V19.6361H69.6592V0.0280762Z" fill="white"/>
<path d="M96.3903 13.0841V13.5321H81.0463C81.569 15.9214 83.585 17.1161 87.0943 17.1161C89.465 17.1161 91.1077 16.5654 92.0223 15.4641L96.0823 15.6321C95.541 17.0134 94.505 18.0867 92.9743 18.8521C91.4436 19.5987 89.4836 19.9721 87.0943 19.9721C83.921 19.9721 81.4103 19.3374 79.5623 18.0681C77.733 16.7987 76.8183 14.8761 76.8183 12.3001C76.8183 9.76141 77.7236 7.84808 79.5343 6.56008C81.3636 5.27208 83.7996 4.62808 86.8423 4.62808C93.2076 4.62808 96.3903 7.44674 96.3903 13.0841ZM86.8423 7.48408C83.5196 7.48408 81.597 8.65074 81.0743 10.9841H92.2743C92.181 9.90141 91.6583 9.05208 90.7063 8.43608C89.773 7.80141 88.485 7.48408 86.8423 7.48408Z" fill="white"/>
<path d="M110.247 4.62808C112.805 4.62808 114.877 5.31874 116.463 6.70008C118.069 8.06274 118.871 9.92941 118.871 12.3001C118.871 14.6707 118.078 16.5467 116.491 17.9281C114.905 19.2907 112.842 19.9721 110.303 19.9721C106.943 19.9721 104.573 18.8707 103.191 16.6681V19.6361H99.3553V0.0280762H101.5H103.5L103.527 7.45608C104.909 5.57074 107.149 4.62808 110.247 4.62808ZM104.871 15.5761C105.898 16.3974 107.289 16.8081 109.043 16.8081C110.798 16.8081 112.189 16.3974 113.215 15.5761C114.242 14.7547 114.755 13.6627 114.755 12.3001C114.755 10.9374 114.242 9.84541 113.215 9.02408C112.189 8.20274 110.798 7.79208 109.043 7.79208C107.289 7.79208 105.898 8.20274 104.871 9.02408C103.845 9.84541 103.331 10.9374 103.331 12.3001C103.331 13.6627 103.845 14.7547 104.871 15.5761Z" fill="white"/>
<path d="M123.805 17.9561C121.994 16.5934 121.089 14.7081 121.089 12.3001C121.089 9.89208 121.994 8.01608 123.805 6.67208C125.615 5.30941 128.051 4.62808 131.113 4.62808C134.155 4.62808 136.582 5.30941 138.393 6.67208C140.203 8.01608 141.109 9.89208 141.109 12.3001C141.109 14.7081 140.203 16.5934 138.393 17.9561C136.582 19.3001 134.155 19.9721 131.113 19.9721C128.051 19.9721 125.615 19.3001 123.805 17.9561ZM126.801 9.05208C125.755 9.89208 125.233 10.9747 125.233 12.3001C125.233 13.6254 125.755 14.7081 126.801 15.5481C127.865 16.3881 129.302 16.8081 131.113 16.8081C132.923 16.8081 134.351 16.3881 135.397 15.5481C136.461 14.7081 136.993 13.6254 136.993 12.3001C136.993 10.9747 136.461 9.89208 135.397 9.05208C134.351 8.21208 132.923 7.79208 131.113 7.79208C129.302 7.79208 127.865 8.21208 126.801 9.05208Z" fill="white"/>
<path d="M155.206 4.62808C157.502 4.62808 159.247 5.21608 160.442 6.39208C161.636 7.56808 162.234 9.29474 162.234 11.5721V19.6361H158.062V12.8601C158.062 11.2734 157.716 10.0787 157.026 9.27608C156.335 8.47341 155.224 8.07208 153.694 8.07208C151.958 8.07208 150.623 8.56674 149.69 9.55608C148.756 10.5267 148.29 11.8614 148.29 13.5601V19.6361H144.118V4.96408H147.954V8.49208C149.298 5.91608 151.715 4.62808 155.206 4.62808Z" fill="white"/>
</svg>
